<svg width="28" height="28" viewBox="0 0 28 28" fill="none" xmlns="http://www.w3.org/2000/svg">
<path d="M18.5556 14.1597L17.9049 14.0771C15.5989 13.7826 13.7853 11.9655 13.4932 9.65953L13.4152 9.04491C13.2883 8.03801 12.2965 7.35938 11.2524 7.35938C10.2199 7.35938 9.23042 8.01008 9.09772 9.01348L9.01507 9.66419C8.72057 11.9702 6.90349 13.7837 4.59752 14.0759L3.9829 14.1539C2.95389 14.2878 2.29736 15.2726 2.29736 16.3167C2.29736 17.3609 2.91896 18.3456 3.95147 18.4714L4.60217 18.554C6.90815 18.8485 8.72173 20.6656 9.01391 22.9716L9.0919 23.5862C9.21878 24.6338 10.2105 25.2717 11.2547 25.2717C12.2872 25.2717 13.2895 24.5686 13.4093 23.6176L13.492 22.9669C13.7865 20.6609 15.6036 18.8473 17.9095 18.5552L18.5242 18.4772C19.559 18.3456 20.2097 17.3585 20.2097 16.3144C20.2097 15.2702 19.5602 14.2854 18.5556 14.1597Z" fill="#651FFF"/>
<path d="M24.4434 5.69705L24.1186 5.65515C22.9662 5.50731 22.0582 4.59936 21.9127 3.44695L21.8743 3.13964C21.8103 2.63561 21.3144 2.29688 20.7929 2.29688C20.2761 2.29688 19.7825 2.62164 19.715 3.12451L19.6731 3.44928C19.5253 4.60169 18.6173 5.50964 17.4649 5.65515L17.1576 5.69356C16.6431 5.76108 16.3148 6.25347 16.3148 6.77496C16.3148 7.29645 16.6256 7.79001 17.1425 7.85287L17.4672 7.89477C18.6196 8.04261 19.5276 8.95056 19.6731 10.103L19.7115 10.4103C19.7744 10.9341 20.2714 11.253 20.7929 11.253C21.3097 11.253 21.8103 10.9015 21.8708 10.4254L21.9127 10.1006C22.0605 8.94824 22.9685 8.04028 24.1209 7.89477L24.4282 7.85636C24.9462 7.79117 25.271 7.29645 25.271 6.77496C25.271 6.25347 24.9462 5.76108 24.4434 5.69705Z" fill="#651FFF"/>
</svg>
