<svg width="104" height="28" viewBox="0 0 104 28" fill="none" xmlns="http://www.w3.org/2000/svg">
<path d="M72.9933 2.94771V9.47006H71.1501V2.94771H72.9933ZM71.0221 1.23477C71.0221 1.56857 71.1288 1.8321 71.3421 2.02536C71.564 2.21861 71.8072 2.31524 72.0717 2.31524C72.3362 2.31524 72.5752 2.21861 72.7885 2.02536C73.0104 1.8321 73.1213 1.56857 73.1213 1.23477C73.1213 0.900963 73.0104 0.637434 72.7885 0.444179C72.5752 0.250924 72.3362 0.154297 72.0717 0.154297C71.8072 0.154297 71.564 0.250924 71.3421 0.444179C71.1288 0.637434 71.0221 0.900963 71.0221 1.23477Z" fill="#9E9E9E"/>
<path d="M65.7374 2.97452H67.5934V3.68605C67.9945 3.10629 68.5577 2.81641 69.283 2.81641C69.8804 2.81641 70.3966 3.01405 70.8318 3.40935L70.0638 4.91147C69.7652 4.69186 69.4281 4.58205 69.0526 4.58205C68.6345 4.58205 68.2846 4.71821 68.003 4.99052C67.7214 5.25405 67.5806 5.6186 67.5806 6.08417V9.47052H65.7374V2.97452Z" fill="#9E9E9E"/>
<path d="M61.4107 2.81641C62.4689 2.81641 63.2667 3.02284 63.8043 3.4357C64.3505 3.83978 64.6235 4.48982 64.6235 5.38582V9.47052H62.8571C62.8571 9.11915 62.8571 8.28464 62.8571 8.28464H62.8187C62.6481 8.67994 62.3707 8.99617 61.9867 9.23335C61.6027 9.47052 61.1633 9.58911 60.6683 9.58911C60.0198 9.58911 59.4822 9.40025 59.0555 9.02252C58.6289 8.63601 58.4155 8.12213 58.4155 7.48088C58.4155 6.80448 58.6502 6.27743 59.1195 5.8997C59.5974 5.52197 60.2118 5.33311 60.9627 5.33311C61.6198 5.33311 62.1702 5.44731 62.6139 5.6757V5.54394C62.6139 4.77092 62.1275 4.38441 61.1547 4.38441C60.5745 4.38441 59.9345 4.50739 59.2347 4.75335L58.8635 3.31711C59.6827 2.98331 60.5318 2.81641 61.4107 2.81641ZM61.3083 7.99476C61.6582 7.99476 61.9569 7.89813 62.2043 7.70488C62.4518 7.51162 62.6011 7.2437 62.6523 6.90111C62.2598 6.69029 61.8374 6.58488 61.3851 6.58488C61.0865 6.58488 60.8475 6.64637 60.6683 6.76935C60.4977 6.89233 60.4123 7.07241 60.4123 7.30958C60.4123 7.52919 60.4977 7.70048 60.6683 7.82346C60.839 7.93766 61.0523 7.99476 61.3083 7.99476Z" fill="#9E9E9E"/>
<path d="M52.2126 0.259766H54.0558V5.51718L55.9246 2.97412H58.1006V3.09271L55.7838 6.03106L58.459 9.32518V9.47012H56.2446L54.0558 6.61083V9.47012H52.2126V0.259766Z" fill="#9E9E9E"/>
<path d="M51.4943 5.99194C51.4943 6.27303 51.4687 6.54535 51.4175 6.80888H46.9887C47.0399 7.1866 47.2191 7.48527 47.5263 7.70488C47.8335 7.9157 48.1791 8.02111 48.5631 8.02111C49.2116 8.02111 49.7834 7.81907 50.2783 7.41499L51.1359 8.64041C50.4788 9.29045 49.5871 9.61546 48.4607 9.61546C47.4367 9.61546 46.5962 9.32558 45.9391 8.74582C45.2906 8.15727 44.9663 7.31837 44.9663 6.22911C44.9663 5.15743 45.2991 4.32292 45.9647 3.72558C46.6388 3.11946 47.4452 2.81641 48.3839 2.81641C49.3055 2.81641 50.0522 3.0975 50.6239 3.6597C51.2042 4.21311 51.4943 4.99052 51.4943 5.99194ZM49.2415 4.70064C49.0026 4.48103 48.6996 4.37123 48.3327 4.37123C47.9658 4.37123 47.6586 4.48103 47.4111 4.70064C47.1636 4.91146 47.0228 5.22331 46.9887 5.63617H49.5871C49.5956 5.22331 49.4804 4.91146 49.2415 4.70064Z" fill="#9E9E9E"/>
<path d="M40.2881 9.47003H38.4705V5.97826C38.4705 5.02956 38.1079 4.55521 37.3825 4.55521C37.0327 4.55521 36.7553 4.69575 36.5505 4.97685C36.3457 5.25795 36.2433 5.59615 36.2433 5.99144V9.47003H34.4001V2.96085H36.1409V3.69873C36.4652 3.11019 37.0199 2.81591 37.8049 2.81591C38.6839 2.81591 39.2983 3.21999 39.6481 4.02815C39.9297 3.58893 40.2327 3.27709 40.5569 3.09262C40.8812 2.89936 41.278 2.80273 41.7473 2.80273C42.4983 2.80273 43.1041 3.03991 43.5649 3.51426C44.0343 3.98862 44.2689 4.78799 44.2689 5.91238V9.47003H42.4129V5.95191C42.4129 5.04713 42.0929 4.59473 41.4529 4.59473C41.1031 4.59473 40.8215 4.73089 40.6081 5.00321C40.3948 5.26673 40.2881 5.59175 40.2881 5.97826V9.47003Z" fill="#9E9E9E"/>
<path d="M18.5556 14.1597L17.9049 14.0771C15.5989 13.7826 13.7853 11.9655 13.4932 9.65953L13.4152 9.04491C13.2883 8.03801 12.2965 7.35938 11.2524 7.35938C10.2199 7.35938 9.23042 8.01008 9.09772 9.01348L9.01507 9.66419C8.72057 11.9702 6.90349 13.7837 4.59752 14.0759L3.9829 14.1539C2.95389 14.2878 2.29736 15.2726 2.29736 16.3167C2.29736 17.3609 2.91896 18.3456 3.95147 18.4714L4.60217 18.554C6.90815 18.8485 8.72173 20.6656 9.01391 22.9716L9.0919 23.5862C9.21878 24.6338 10.2105 25.2717 11.2547 25.2717C12.2872 25.2717 13.2895 24.5686 13.4093 23.6176L13.492 22.9669C13.7865 20.6609 15.6036 18.8473 17.9095 18.5552L18.5242 18.4772C19.559 18.3456 20.2097 17.3585 20.2097 16.3144C20.2097 15.2702 19.5602 14.2854 18.5556 14.1597Z" fill="#651FFF"/>
<path d="M24.4434 5.69705L24.1186 5.65515C22.9662 5.50731 22.0582 4.59936 21.9127 3.44695L21.8743 3.13964C21.8103 2.63561 21.3144 2.29688 20.7929 2.29688C20.2761 2.29688 19.7825 2.62164 19.715 3.12451L19.6731 3.44928C19.5253 4.60169 18.6173 5.50964 17.4649 5.65515L17.1576 5.69356C16.6431 5.76108 16.3148 6.25347 16.3148 6.77496C16.3148 7.29645 16.6256 7.79001 17.1425 7.85287L17.4672 7.89477C18.6196 8.04261 19.5276 8.95056 19.6731 10.103L19.7115 10.4103C19.7744 10.9341 20.2714 11.253 20.7929 11.253C21.3097 11.253 21.8103 10.9015 21.8708 10.4254L21.9127 10.1006C22.0605 8.94824 22.9685 8.04028 24.1209 7.89477L24.4282 7.85636C24.9462 7.79117 25.271 7.29645 25.271 6.77496C25.271 6.25347 24.9462 5.76108 24.4434 5.69705Z" fill="#651FFF"/>
<path d="M39.2831 16.6914C41.0086 16.6914 42.3135 17.0243 43.1962 17.69C44.0788 18.3558 44.5217 19.42 44.5217 20.8793V27.5384H41.5376C41.5376 26.9661 41.5726 26.3217 41.6427 25.6051H41.5806C41.3018 26.2495 40.8509 26.7644 40.2231 27.1514C39.597 27.5384 38.88 27.7319 38.0738 27.7319C37.0159 27.7319 36.1396 27.4203 35.4434 26.7972C34.7471 26.1741 34.3998 25.3411 34.3998 24.2949C34.3998 23.193 34.7853 22.3338 35.5581 21.7172C36.3308 21.1023 37.3282 20.7941 38.5534 20.7941C39.6241 20.7941 40.5227 20.981 41.246 21.3532V21.1384C41.246 19.8791 40.4526 19.2478 38.8673 19.2478C37.9209 19.2478 36.8773 19.4478 35.7365 19.8496L35.1311 17.508C36.4662 16.9636 37.8508 16.6914 39.2847 16.6914H39.2831ZM39.1158 25.1329C39.6862 25.1329 40.1737 24.9754 40.5768 24.6606C40.9799 24.3458 41.2237 23.9096 41.3066 23.3504C40.6661 23.0061 39.9778 22.8356 39.2401 22.8356C38.7526 22.8356 38.367 22.9356 38.0818 23.1356C37.7966 23.3357 37.6532 23.6292 37.6532 24.0162C37.6532 24.3736 37.7918 24.6508 38.0706 24.8426C38.3495 25.0361 38.6968 25.1329 39.1142 25.1329H39.1158Z" fill="#232933"/>
<path d="M47.3083 15.4035C46.953 15.0886 46.7761 14.659 46.7761 14.1146C46.7761 13.5702 46.953 13.1406 47.3083 12.8258C47.6636 12.5109 48.0555 12.3535 48.4873 12.3535C48.9191 12.3535 49.311 12.5109 49.6663 12.8258C50.0216 13.1406 50.1984 13.5702 50.1984 14.1146C50.1984 14.659 50.0216 15.0886 49.6663 15.4035C49.311 15.7183 48.9175 15.8757 48.4873 15.8757C48.0571 15.8757 47.6636 15.7183 47.3083 15.4035ZM49.9897 16.9071H46.9848V27.5409H49.9897V16.9071Z" fill="#232933"/>
<path d="M52.5374 16.9505H55.3335L55.563 18.1098C56.2162 17.1653 57.1355 16.6914 58.3177 16.6914C59.2912 16.6914 60.134 17.0128 60.843 17.6572L59.5907 20.1054C59.1032 19.7479 58.5535 19.5675 57.9417 19.5675C57.2598 19.5675 56.6894 19.7856 56.2305 20.2234C55.7717 20.6612 55.5422 21.2581 55.5422 22.0173V27.5384H52.5374V16.9488V16.9505Z" fill="#232933"/>
<path d="M71.7808 23.2455H64.2049C64.2877 23.7899 64.5729 24.2375 65.0605 24.5884C65.548 24.9393 66.1949 25.1148 67.0011 25.1148C68.1562 25.1148 69.0468 24.836 69.6729 24.2769L71.3634 26.2101C70.3341 27.2563 68.8588 27.7778 66.9389 27.7778C65.019 27.7778 63.6791 27.2694 62.6706 26.2528C61.662 25.2361 61.157 23.862 61.157 22.1288C61.157 20.4956 61.6509 19.1756 62.6387 18.1655C63.6265 17.1554 64.9553 16.6504 66.625 16.6504C68.4477 16.6504 69.8434 17.2227 70.8105 18.3689C71.7776 19.515 72.1011 21.14 71.7808 23.2455ZM64.2049 20.9908H69.0882C69.0595 20.4464 68.8094 20.0283 68.3362 19.7348C67.863 19.4412 67.2926 19.2937 66.625 19.2937C66.026 19.2937 65.5114 19.4445 65.0812 19.7446C64.6494 20.0447 64.3578 20.4612 64.2049 20.9908Z" fill="#232933"/>
<path d="M84.2413 27.5409H81.2142V21.9346C81.2142 20.2882 80.5051 19.4651 79.0856 19.4651C78.4036 19.4503 77.8444 19.7012 77.4063 20.2161C76.9681 20.731 76.7482 21.3475 76.7482 22.0641V27.5409H73.7848V16.93H76.4981L76.6017 18.2828C77.4222 17.1809 78.5359 16.6431 79.9411 16.671C82.8074 16.671 84.2413 18.4189 84.2413 21.9116V27.5392V27.5409Z" fill="#232933"/>
<path d="M96.6801 23.2455H89.1042C89.187 23.7899 89.4722 24.2375 89.9598 24.5884C90.4473 24.9393 91.0942 25.1148 91.9003 25.1148C93.0555 25.1148 93.9461 24.836 94.5722 24.2769L96.2627 26.2101C95.2334 27.2563 93.7581 27.7778 91.8382 27.7778C89.9183 27.7778 88.5784 27.2694 87.5699 26.2528C86.5613 25.2361 86.0563 23.862 86.0563 22.1288C86.0563 20.4956 86.5502 19.1756 87.538 18.1655C88.5258 17.1554 89.8546 16.6504 91.5243 16.6504C93.347 16.6504 94.7427 17.2227 95.7098 18.3689C96.6769 19.515 97.0004 21.14 96.6801 23.2455ZM89.1042 20.9908H93.9875C93.9588 20.4464 93.7087 20.0283 93.2355 19.7348C92.7623 19.4412 92.1919 19.2937 91.5243 19.2937C90.9253 19.2937 90.4106 19.4445 89.9805 19.7446C89.5487 20.0447 89.2571 20.4612 89.1042 20.9908Z" fill="#232933"/>
</svg>
