<svg width="125" height="40" viewBox="0 0 125 40" fill="none" xmlns="http://www.w3.org/2000/svg">
<g id="logo-qontak" clip-path="url(#clip0_1112_29310)">
<g id="mekari">
<path d="M48.3747 12.2135H45.9438V7.67411C45.9438 6.44077 45.4588 5.8241 44.4887 5.8241C44.0208 5.8241 43.6499 6.00682 43.376 6.37226C43.1021 6.73769 42.9651 7.17735 42.9651 7.69124V12.2135H40.5V3.75141H42.8282V4.71067C43.2619 3.94555 44.0037 3.56298 45.0537 3.56298C46.2292 3.56298 47.0509 4.08829 47.5188 5.13892C47.8954 4.56793 48.3006 4.16252 48.7342 3.92271C49.1679 3.67147 49.6986 3.54585 50.3263 3.54585C51.3306 3.54585 52.1409 3.85419 52.7572 4.47086C53.3849 5.08753 53.6987 6.12673 53.6987 7.58846V12.2135H51.2165V7.63985C51.2165 6.46361 50.7885 5.87549 49.9326 5.87549C49.4646 5.87549 49.088 6.0525 48.8027 6.40651C48.5174 6.74911 48.3747 7.17164 48.3747 7.67411V12.2135Z" fill="#9E9E9E"/>
<path d="M63.5292 7.69124C63.5292 8.05668 63.495 8.41069 63.4265 8.75328H57.5033C57.5718 9.24434 57.8115 9.63261 58.2223 9.9181C58.6332 10.1922 59.0954 10.3292 59.6089 10.3292C60.4763 10.3292 61.241 10.0666 61.9029 9.54125L63.0499 11.1343C62.1711 11.9794 60.9785 12.4019 59.472 12.4019C58.1025 12.4019 56.9783 12.0251 56.0996 11.2714C55.2322 10.5062 54.7985 9.41563 54.7985 7.99958C54.7985 6.60636 55.2436 5.52148 56.1338 4.74493C57.0354 3.95697 58.1139 3.56298 59.3693 3.56298C60.6018 3.56298 61.6005 3.92842 62.3651 4.65928C63.1412 5.37873 63.5292 6.38938 63.5292 7.69124ZM60.5163 6.01253C60.1967 5.72704 59.7915 5.58429 59.3008 5.58429C58.8101 5.58429 58.3992 5.72704 58.0682 6.01253C57.7373 6.28661 57.549 6.69201 57.5033 7.22874H60.9785C60.9899 6.69201 60.8358 6.28661 60.5163 6.01253Z" fill="#9E9E9E"/>
<path d="M64.6566 0.23982H67.1218V7.07457L69.6212 3.76854H72.5314V3.92271L69.4328 7.74263L73.0107 12.0251V12.2135H70.0491L67.1218 8.49634V12.2135H64.6566V0.23982Z" fill="#9E9E9E"/>
<path d="M77.1253 3.56298C78.5405 3.56298 79.6075 3.83135 80.3265 4.36808C81.0569 4.89339 81.4222 5.73846 81.4222 6.90328V12.2135H79.0597V10.6718H79.0084C78.7801 11.1857 78.4092 11.5968 77.8956 11.9052C77.3821 12.2135 76.7943 12.3677 76.1324 12.3677C75.265 12.3677 74.546 12.1221 73.9754 11.6311C73.4048 11.1286 73.1194 10.4605 73.1194 9.6269C73.1194 8.74757 73.4333 8.06239 74.061 7.57133C74.7001 7.08028 75.5218 6.83476 76.5261 6.83476C77.4049 6.83476 78.141 6.98321 78.7345 7.28013V7.10883C78.7345 6.10389 78.084 5.60142 76.7829 5.60142C76.0068 5.60142 75.1509 5.7613 74.2151 6.08105L73.7186 4.21391C74.8142 3.77996 75.9498 3.56298 77.1253 3.56298ZM76.9883 10.295C77.4563 10.295 77.8557 10.1693 78.1867 9.9181C78.5176 9.66687 78.7174 9.31856 78.7858 8.87319C78.2608 8.59912 77.6959 8.46208 77.0911 8.46208C76.6916 8.46208 76.3721 8.54202 76.1324 8.7019C75.9041 8.86177 75.79 9.09588 75.79 9.40421C75.79 9.68971 75.9041 9.91239 76.1324 10.0723C76.3606 10.2207 76.646 10.295 76.9883 10.295Z" fill="#9E9E9E"/>
<path d="M83.0791 3.76854H85.5613V4.69354C86.0977 3.93984 86.851 3.56298 87.8211 3.56298C88.6199 3.56298 89.3104 3.81993 89.8924 4.33382L88.8653 6.28661C88.4659 6.00111 88.0151 5.85836 87.5129 5.85836C86.9537 5.85836 86.4858 6.03537 86.1091 6.38939C85.7325 6.73198 85.5442 7.2059 85.5442 7.81115V12.2135H83.0791V3.76854Z" fill="#9E9E9E"/>
<path d="M92.9499 3.73428H90.4848V12.2135H92.9499V3.73428ZM90.7416 2.5352C90.4563 2.28397 90.3136 1.94137 90.3136 1.50742C90.3136 1.07347 90.4563 0.730872 90.7416 0.479636C91.0383 0.228401 91.3636 0.102783 91.7174 0.102783C92.0712 0.102783 92.3907 0.228401 92.676 0.479636C92.9728 0.730872 93.1211 1.07347 93.1211 1.50742C93.1211 1.94137 92.9728 2.28397 92.676 2.5352C92.3907 2.78644 92.0712 2.91205 91.7174 2.91205C91.3636 2.91205 91.0383 2.78644 90.7416 2.5352Z" fill="#9E9E9E"/>
</g>
<g id="qontak">
<path d="M47.3305 30.6472C48.2378 30.6472 49.0338 30.356 49.7186 29.7736C50.4033 29.1912 50.7457 28.3947 50.7457 27.384C50.7457 26.2706 50.4119 25.4484 49.7443 24.9173C49.0766 24.3863 48.272 24.1208 47.3305 24.1208C46.3718 24.1208 45.61 24.4291 45.0451 25.0458C44.4973 25.6625 44.2234 26.4419 44.2234 27.384C44.2234 28.3433 44.5058 29.1312 45.0708 29.7479C45.6357 30.3475 46.3889 30.6472 47.3305 30.6472ZM54.5205 39.3063H50.7971V32.1889C49.8213 33.388 48.4946 33.9875 46.8169 33.9875C44.9338 33.9875 43.4102 33.3965 42.2461 32.2146C41.082 31.0155 40.5 29.4053 40.5 27.384C40.5 25.4141 41.0735 23.8296 42.2205 22.6305C43.3846 21.4143 44.8996 20.8062 46.7656 20.8062C48.6144 20.8062 50.0182 21.4229 50.9768 22.6562V21.0375H54.5205V39.3063Z" fill="black"/>
<path d="M63.2806 33.9875C61.175 33.9875 59.4888 33.3794 58.222 32.1632C56.9723 30.9299 56.3474 29.3368 56.3474 27.384C56.3474 25.4484 56.9808 23.8553 58.2477 22.6048C59.5316 21.3544 61.2092 20.7291 63.2806 20.7291C65.3692 20.7291 67.0468 21.3544 68.3136 22.6048C69.5975 23.8553 70.2395 25.4484 70.2395 27.384C70.2395 29.3368 69.6061 30.9299 68.3393 32.1632C67.0896 33.3794 65.4034 33.9875 63.2806 33.9875ZM63.2806 30.6986C64.342 30.6986 65.138 30.3817 65.6687 29.7479C66.2165 29.097 66.4904 28.309 66.4904 27.384C66.4904 26.4933 66.2165 25.7139 65.6687 25.0458C65.1209 24.3778 64.3249 24.0437 63.2806 24.0437C62.2535 24.0437 61.466 24.3778 60.9182 25.0458C60.3704 25.7139 60.0965 26.4933 60.0965 27.384C60.0965 28.2748 60.3618 29.0542 60.8925 29.7222C61.4403 30.3732 62.2364 30.6986 63.2806 30.6986Z" fill="black"/>
<path d="M84.9525 33.7049H81.2291V26.9986C81.2291 25.0287 80.356 24.0437 78.6099 24.0437C77.7711 24.0266 77.0777 24.3264 76.5299 24.943C75.9992 25.5597 75.7339 26.2963 75.7339 27.1528V33.7049H72.0876V21.0118H75.5541V22.6305C76.5642 21.3115 77.9337 20.6692 79.6627 20.7034C83.1892 20.7034 84.9525 22.7933 84.9525 26.9729V33.7049Z" fill="black"/>
<path d="M88.6941 17.543H92.3918V21.0889H95.6016V24.1722H92.3661V28.9514C92.3661 30.0819 92.8455 30.6472 93.8041 30.6472C94.4204 30.6472 94.934 30.5445 95.3448 30.3389L96.1922 33.4222C95.3534 33.7477 94.4632 33.9361 93.5217 33.9875C92.0323 34.056 90.8511 33.7049 89.978 32.934C89.1221 32.1461 88.6941 30.8185 88.6941 28.9514V24.1722H86.4344V21.0889H88.6941V17.543Z" fill="black"/>
<path d="M102.752 20.7291C104.874 20.7291 106.475 21.1317 107.554 21.9368C108.649 22.7247 109.197 23.9923 109.197 25.7396V33.7049H105.653V31.3924H105.576C105.234 32.1632 104.678 32.7799 103.907 33.2424C103.137 33.7049 102.255 33.9361 101.262 33.9361C99.9613 33.9361 98.8828 33.5678 98.0268 32.8313C97.1709 32.0776 96.7429 31.0755 96.7429 29.825C96.7429 28.506 97.2137 27.4782 98.1552 26.7417C99.1139 26.0051 100.346 25.6368 101.853 25.6368C103.171 25.6368 104.275 25.8595 105.165 26.3048V26.0479C105.165 24.5405 104.19 23.7868 102.238 23.7868C101.074 23.7868 99.7901 24.0266 98.3863 24.5062L97.6417 21.7055C99.2851 21.0546 100.988 20.7291 102.752 20.7291ZM102.546 30.8271C103.248 30.8271 103.847 30.6387 104.344 30.2618C104.84 29.885 105.14 29.3625 105.243 28.6944C104.455 28.2833 103.608 28.0778 102.7 28.0778C102.101 28.0778 101.622 28.1977 101.262 28.4375C100.92 28.6773 100.749 29.0285 100.749 29.491C100.749 29.9192 100.92 30.2532 101.262 30.4931C101.605 30.7157 102.033 30.8271 102.546 30.8271Z" fill="black"/>
<path d="M111.682 15.7444H115.38V25.9965L119.129 21.0375H123.494V21.2687L118.847 26.9986L124.213 33.4222V33.7049H119.771L115.38 28.1292V33.7049H111.682V15.7444Z" fill="black"/>
</g>
<g id="logo-mekari-qontak">
<path id="Vector" d="M29.2775 24.9657H17.5008C13.1073 24.9657 9.53285 21.3912 9.53285 16.9978C9.53285 12.6044 13.1073 9.02989 17.5008 9.02989C21.8942 9.02989 25.4687 12.6044 25.4687 16.9978V17.7974C25.4687 19.8974 27.1775 21.604 29.2753 21.604C31.3732 21.604 33.082 19.8952 33.082 17.7974V16.9075C33.0562 12.7634 31.4247 8.87298 28.4865 5.94976C25.5461 3.02655 21.6449 1.41663 17.4986 1.41663C8.90521 1.41663 1.91528 8.40656 1.91528 17C1.91528 25.5934 8.90521 32.5833 17.4986 32.5833H29.2753C31.3753 32.5833 33.082 30.8745 33.082 28.7767C33.082 26.6788 31.3732 24.97 29.2753 24.97L29.2775 24.9657Z" fill="#2979FF"/>
</g>
</g>
<defs>
<clipPath id="clip0_1112_29310">
<rect width="125" height="40" fill="white"/>
</clipPath>
</defs>
</svg>
