<svg width="24" height="24" viewBox="0 0 24 24" fill="none" xmlns="http://www.w3.org/2000/svg">
<path d="M6.54713 6.03678L9.93713 7.08345L12.4046 5.04178C12.4593 4.99191 12.5273 4.95915 12.6004 4.94755C12.6735 4.93595 12.7483 4.94603 12.8157 4.97653C12.8831 5.00704 12.9401 5.05663 12.9796 5.11918C13.0191 5.18173 13.0394 5.25449 13.038 5.32845L12.9388 8.94345L16.0146 10.6426C16.079 10.6828 16.1304 10.7406 16.163 10.8091C16.1956 10.8776 16.2078 10.954 16.1984 11.0293C16.1889 11.1046 16.1581 11.1755 16.1096 11.2339C16.0611 11.2922 15.9969 11.3354 15.9246 11.3585L12.5613 12.5618L11.358 15.9251C11.3351 15.9974 11.292 16.0617 11.2337 16.1102C11.1755 16.1588 11.1045 16.1896 11.0293 16.1991C10.954 16.2086 10.8777 16.1963 10.8092 16.1637C10.7407 16.1311 10.683 16.0795 10.643 16.0151L8.94296 12.9393L5.32796 13.0385C5.254 13.0399 5.18124 13.0196 5.11869 12.9801C5.05615 12.9406 5.00655 12.8836 4.97605 12.8162C4.94554 12.7488 4.93546 12.6739 4.94706 12.6009C4.95866 12.5278 4.99142 12.4598 5.0413 12.4051L7.0838 9.93678L6.03713 6.54678C6.01829 6.47619 6.01835 6.40188 6.0373 6.33131C6.05625 6.26075 6.09342 6.1964 6.14508 6.14474C6.19675 6.09307 6.26109 6.0559 6.33166 6.03695C6.40223 6.01801 6.47653 6.01795 6.54713 6.03678Z" stroke="#626B79" stroke-width="1.5" stroke-linecap="round" stroke-linejoin="round"/>
<path d="M12.5605 12.5608L20.3747 20.375" stroke="#626B79" stroke-width="1.5" stroke-linecap="round" stroke-linejoin="round"/>
<path d="M16 2.875H18.5" stroke="#626B79" stroke-width="1.5" stroke-linecap="round" stroke-linejoin="round"/>
<path d="M17.25 1.625V4.125" stroke="#626B79" stroke-width="1.5" stroke-linecap="round" stroke-linejoin="round"/>
<path d="M2.875 17.875H5.375" stroke="#626B79" stroke-width="1.5" stroke-linecap="round" stroke-linejoin="round"/>
<path d="M4.125 16.625V19.125" stroke="#626B79" stroke-width="1.5" stroke-linecap="round" stroke-linejoin="round"/>
<path d="M8.5 3.5V1.625" stroke="#626B79" stroke-width="1.5" stroke-linecap="round" stroke-linejoin="round"/>
<path d="M1.625 9.125H3.5" stroke="#626B79" stroke-width="1.5" stroke-linecap="round" stroke-linejoin="round"/>
</svg>
