<svg width="133" height="40" viewBox="0 0 133 40" fill="none" xmlns="http://www.w3.org/2000/svg">
<path d="M5.42715 32.0064L24.7595 25.2299C28.2652 24.1058 30.7692 21.1949 30.7692 17.4323C30.7692 13.7084 28.2927 10.821 24.8677 9.66263L5.42715 2.85612C3.54273 2.18684 1.47793 2.65447 0.482666 4.39847C-0.512598 6.14032 0.109177 8.14388 1.63496 9.49746L10.5881 17.4323L1.63496 25.3672C0.109177 26.7122 -0.512598 28.7243 0.482666 30.4662C1.47793 32.208 3.53 32.695 5.42715 32.0085V32.0064Z" fill="#F22929"/>
<path d="M40.4818 1.43895H42.9485V3.80285H45.0897V5.85841H42.9313V9.04454C42.9313 9.79824 43.2511 10.1751 43.8906 10.1751C44.3017 10.1751 44.6443 10.1066 44.9184 9.96954L45.4837 12.0251C44.9241 12.2421 44.3303 12.3677 43.7022 12.402C42.7086 12.4476 41.9207 12.2135 41.3383 11.6996C40.7673 11.1743 40.4818 10.2893 40.4818 9.04454V5.85841H38.9744V3.80285H40.4818V1.43895Z" fill="#9E9E9E"/>
<path d="M49.8594 3.56303C51.2754 3.56303 52.3432 3.8314 53.0626 4.36813C53.7935 4.89344 54.1589 5.7385 54.1589 6.90332V12.2135H51.795V10.6719H51.7436C51.5152 11.1857 51.1441 11.5969 50.6302 11.9052C50.1163 12.2135 49.5282 12.3677 48.8658 12.3677C47.9979 12.3677 47.2785 12.1222 46.7075 11.6311C46.1365 11.1287 45.851 10.4606 45.851 9.62695C45.851 8.74762 46.1651 8.06243 46.7931 7.57138C47.4326 7.08033 48.2549 6.8348 49.2598 6.8348C50.1391 6.8348 50.8757 6.98326 51.4695 7.28018V7.10888C51.4695 6.10394 50.8186 5.60147 49.5168 5.60147C48.7402 5.60147 47.8837 5.76134 46.9473 6.0811L46.4505 4.21396C47.5468 3.78001 48.6831 3.56303 49.8594 3.56303ZM49.7223 10.295C50.1905 10.295 50.5902 10.1694 50.9214 9.91815C51.2526 9.66692 51.4524 9.31861 51.5209 8.87324C50.9956 8.59916 50.4303 8.46213 49.8251 8.46213C49.4254 8.46213 49.1056 8.54206 48.8658 8.70194C48.6374 8.86182 48.5232 9.09592 48.5232 9.40426C48.5232 9.68975 48.6374 9.91244 48.8658 10.0723C49.0942 10.2208 49.3797 10.295 49.7223 10.295Z" fill="#9E9E9E"/>
<path d="M55.8511 0.239868H58.3007V12.2135H55.8511V0.239868Z" fill="#9E9E9E"/>
<path d="M68.2882 7.69129C68.2882 8.05672 68.254 8.41074 68.1855 8.75333H62.2586C62.3271 9.24438 62.5669 9.63266 62.978 9.91815C63.3891 10.1922 63.8516 10.3293 64.3655 10.3293C65.2334 10.3293 65.9986 10.0666 66.6609 9.5413L67.8086 11.1344C66.9293 11.9794 65.7359 12.402 64.2285 12.402C62.8581 12.402 61.7333 12.0251 60.854 11.2714C59.986 10.5063 59.5521 9.41568 59.5521 7.99962C59.5521 6.60641 59.9975 5.52153 60.8882 4.74498C61.7904 3.95701 62.8695 3.56303 64.1257 3.56303C65.3591 3.56303 66.3583 3.92847 67.1234 4.65933C67.9 5.37878 68.2882 6.38943 68.2882 7.69129ZM65.2734 6.01258C64.9537 5.72708 64.5483 5.58434 64.0572 5.58434C63.5662 5.58434 63.155 5.72708 62.8239 6.01258C62.4927 6.28665 62.3043 6.69206 62.2586 7.22879H65.7359C65.7473 6.69206 65.5932 6.28665 65.2734 6.01258Z" fill="#9E9E9E"/>
<path d="M77.9984 12.2135H75.5146V7.74268C75.5146 6.4294 74.9322 5.77276 73.7673 5.77276C73.2078 5.76134 72.7453 5.96119 72.3798 6.3723C72.0258 6.78342 71.8488 7.27447 71.8488 7.84546V12.2135H69.4164V3.75146H71.7289V4.83063C72.4027 3.9513 73.3163 3.52306 74.4697 3.5459C76.8221 3.5459 77.9984 4.93912 77.9984 7.72555V12.2135Z" fill="#9E9E9E"/>
<path d="M80.4944 1.43895H82.961V3.80285H85.1023V5.85841H82.9439V9.04454C82.9439 9.79824 83.2637 10.1751 83.9032 10.1751C84.3143 10.1751 84.6569 10.1066 84.931 9.96954L85.4962 12.0251C84.9367 12.2421 84.3428 12.3677 83.7147 12.402C82.7212 12.4476 81.9333 12.2135 81.3508 11.6996C80.7799 11.1743 80.4944 10.2893 80.4944 9.04454V5.85841H78.9869V3.80285H80.4944V1.43895Z" fill="#9E9E9E"/>
<path d="M89.8719 3.56303C91.288 3.56303 92.3558 3.8314 93.0752 4.36813C93.8061 4.89344 94.1715 5.7385 94.1715 6.90332V12.2135H91.8076V10.6719H91.7562C91.5278 11.1857 91.1567 11.5969 90.6428 11.9052C90.1289 12.2135 89.5408 12.3677 88.8784 12.3677C88.0105 12.3677 87.2911 12.1222 86.7201 11.6311C86.1491 11.1287 85.8636 10.4606 85.8636 9.62695C85.8636 8.74762 86.1776 8.06243 86.8057 7.57138C87.4452 7.08033 88.2675 6.8348 89.2724 6.8348C90.1517 6.8348 90.8883 6.98326 91.4821 7.28018V7.10888C91.4821 6.10394 90.8312 5.60147 89.5293 5.60147C88.7528 5.60147 87.8963 5.76134 86.9599 6.0811L86.4631 4.21396C87.5594 3.78001 88.6957 3.56303 89.8719 3.56303ZM89.7349 10.295C90.2031 10.295 90.6028 10.1694 90.934 9.91815C91.2652 9.66692 91.465 9.31861 91.5335 8.87324C91.0082 8.59916 90.4429 8.46213 89.8377 8.46213C89.438 8.46213 89.1182 8.54206 88.8784 8.70194C88.65 8.86182 88.5358 9.09592 88.5358 9.40426C88.5358 9.68975 88.65 9.91244 88.8784 10.0723C89.1068 10.2208 89.3923 10.295 89.7349 10.295Z" fill="#9E9E9E"/>
<path d="M44.3929 20.9861H40.6929V33.7049H44.3929V20.9861ZM41.0783 19.1874C40.65 18.8106 40.4359 18.2967 40.4359 17.6458C40.4359 16.9948 40.65 16.481 41.0783 16.1041C41.5236 15.7272 42.0118 15.5388 42.5429 15.5388C43.0739 15.5388 43.5535 15.7272 43.9818 16.1041C44.4271 16.481 44.6498 16.9948 44.6498 17.6458C44.6498 18.2967 44.4271 18.8106 43.9818 19.1874C43.5535 19.5643 43.0739 19.7527 42.5429 19.7527C42.0118 19.7527 41.5236 19.5643 41.0783 19.1874Z" fill="black"/>
<path d="M59.8385 33.7049H56.1128V26.9986C56.1128 25.0287 55.2392 24.0437 53.492 24.0437C52.6526 24.0266 51.9589 24.3264 51.4107 24.943C50.8797 25.5597 50.6142 26.2963 50.6142 27.1528V33.7049H46.9655V21.0118H50.4343V22.6305C51.445 21.3115 52.8153 20.6692 54.5454 20.7034C58.0742 20.7034 59.8385 22.7932 59.8385 26.9729V33.7049Z" fill="black"/>
<path d="M72.0617 22.2965L70.2374 24.609C69.3638 23.9923 68.3617 23.684 67.2311 23.684C66.6487 23.684 66.1948 23.7782 65.8693 23.9666C65.561 24.1551 65.4068 24.412 65.4068 24.7375C65.4068 25.4398 66.0321 25.8081 67.2825 25.8423C67.8478 25.8595 68.3531 25.9023 68.7985 25.9708C69.261 26.0222 69.7492 26.1421 70.2631 26.3305C70.7941 26.5018 71.2309 26.7245 71.5735 26.9986C71.9161 27.2727 72.2073 27.6666 72.4471 28.1805C72.6869 28.6773 72.8069 29.2597 72.8069 29.9278C72.824 31.0926 72.37 32.0947 71.445 32.934C70.52 33.7734 69.124 34.1931 67.2568 34.1931C65.0128 34.1931 63.0258 33.4736 61.2957 32.0347L62.8887 29.4139C64.1392 30.4417 65.6124 30.9727 67.3082 31.0069C67.8564 31.0241 68.3103 30.9299 68.67 30.7243C69.0469 30.5187 69.2267 30.2532 69.2096 29.9278C69.2096 29.2255 68.4902 28.8486 67.0513 28.7972C66.4175 28.7629 65.8008 28.6773 65.2013 28.5403C64.6189 28.3861 64.0536 28.1634 63.5054 27.8722C62.9744 27.5639 62.5462 27.1442 62.2207 26.6132C61.8952 26.065 61.7325 25.4398 61.7325 24.7375C61.7325 23.3842 62.2635 22.365 63.3256 21.6798C64.3876 20.9946 65.6809 20.652 67.2054 20.652C69.1754 20.652 70.7941 21.2002 72.0617 22.2965Z" fill="black"/>
<path d="M78.166 20.9861H74.466V33.7049H78.166V20.9861ZM74.8514 19.1874C74.4231 18.8106 74.209 18.2967 74.209 17.6458C74.209 16.9948 74.4231 16.481 74.8514 16.1041C75.2967 15.7272 75.7849 15.5388 76.316 15.5388C76.847 15.5388 77.3266 15.7272 77.7549 16.1041C78.2002 16.481 78.4229 16.9948 78.4229 17.6458C78.4229 18.2967 78.2002 18.8106 77.7549 19.1874C77.3266 19.5643 76.847 19.7527 76.316 19.7527C75.7849 19.7527 75.2967 19.5643 74.8514 19.1874Z" fill="black"/>
<path d="M87.0852 40C84.8583 40 82.7856 39.4947 80.8671 38.4841L82.1518 35.5035C83.9333 36.2572 85.5521 36.634 87.0081 36.634C88.9609 36.634 90.0229 35.7776 90.1942 34.0646C90.2456 33.3109 90.3141 32.4887 90.3998 31.5979H90.3227C89.9801 32.266 89.4491 32.8056 88.7297 33.2167C88.0273 33.6107 87.188 33.8076 86.2116 33.8076C84.3616 33.8076 82.8627 33.2338 81.715 32.0861C80.5673 30.9213 79.9935 29.3454 79.9935 27.3583C79.9935 25.4227 80.5588 23.8382 81.6893 22.6048C82.837 21.3544 84.3102 20.7291 86.1088 20.7291C87.1537 20.7291 88.0787 20.9775 88.8838 21.4743C89.706 21.971 90.2542 22.5877 90.5283 23.3243H90.6054V21.0118H94.1512V33.6792C94.1512 35.7347 93.5088 37.3021 92.2241 38.3813C90.9565 39.4604 89.2435 40 87.0852 40ZM87.0852 30.5958C87.9588 30.5958 88.6697 30.2961 89.2178 29.6965C89.7831 29.097 90.0658 28.3176 90.0658 27.3583C90.0658 26.3648 89.8003 25.5683 89.2692 24.9687C88.7382 24.3521 88.0359 24.0437 87.1623 24.0437C86.2373 24.0437 85.4836 24.3435 84.9012 24.943C84.3188 25.5426 84.0275 26.3134 84.0275 27.2555C84.0275 28.2491 84.3102 29.0542 84.8755 29.6708C85.4407 30.2875 86.1773 30.5958 87.0852 30.5958Z" fill="black"/>
<path d="M96.8224 15.7187H100.548V22.5791C101.456 21.3972 102.741 20.8062 104.402 20.8062C107.777 20.8062 109.464 22.8361 109.464 26.8958V33.7049H105.764V26.9215C105.764 26.0479 105.541 25.3713 105.096 24.8916C104.668 24.412 104.085 24.1722 103.349 24.1722C102.544 24.1722 101.867 24.4463 101.319 24.9944C100.788 25.5426 100.522 26.3048 100.522 27.2812V33.7049H96.8224V15.7187Z" fill="black"/>
<path d="M113.214 17.543H116.914V21.0888H120.125V24.1722H116.888V28.9514C116.888 30.0819 117.368 30.6472 118.327 30.6472C118.943 30.6472 119.457 30.5444 119.868 30.3389L120.716 33.4222C119.877 33.7477 118.986 33.9361 118.044 33.9875C116.554 34.056 115.372 33.7049 114.498 32.934C113.642 32.1461 113.214 30.8185 113.214 28.9514V24.1722H110.952V21.0888H113.214V17.543Z" fill="black"/>
<path d="M131.905 22.2965L130.081 24.609C129.207 23.9923 128.205 23.684 127.074 23.684C126.492 23.684 126.038 23.7782 125.713 23.9666C125.404 24.1551 125.25 24.412 125.25 24.7375C125.25 25.4398 125.875 25.8081 127.126 25.8423C127.691 25.8595 128.196 25.9023 128.642 25.9708C129.104 26.0222 129.592 26.1421 130.106 26.3305C130.637 26.5018 131.074 26.7245 131.417 26.9986C131.759 27.2727 132.051 27.6666 132.29 28.1805C132.53 28.6773 132.65 29.2597 132.65 29.9278C132.667 31.0926 132.213 32.0947 131.288 32.934C130.363 33.7734 128.967 34.1931 127.1 34.1931C124.856 34.1931 122.869 33.4736 121.139 32.0347L122.732 29.4139C123.982 30.4417 125.456 30.9727 127.151 31.0069C127.7 31.0241 128.154 30.9299 128.513 30.7243C128.89 30.5187 129.07 30.2532 129.053 29.9278C129.053 29.2255 128.333 28.8486 126.895 28.7972C126.261 28.7629 125.644 28.6773 125.045 28.5403C124.462 28.3861 123.897 28.1634 123.349 27.8722C122.818 27.5639 122.389 27.1442 122.064 26.6132C121.738 26.065 121.576 25.4398 121.576 24.7375C121.576 23.3842 122.107 22.365 123.169 21.6798C124.231 20.9946 125.524 20.652 127.049 20.652C129.019 20.652 130.637 21.2002 131.905 22.2965Z" fill="black"/>
</svg>
