<svg width="134" height="34" viewBox="0 0 134 34" fill="none" xmlns="http://www.w3.org/2000/svg">
<path d="M47.6827 11.9082H45.3111V7.48226C45.3111 6.27976 44.8379 5.67851 43.8914 5.67851C43.4349 5.67851 43.0731 5.85666 42.8058 6.21295C42.5386 6.56925 42.405 6.99792 42.405 7.49897V11.9082H40V3.65763H42.2714V4.59291C42.6945 3.84691 43.4182 3.47392 44.4426 3.47392C45.5894 3.47392 46.3911 3.98609 46.8476 5.01045C47.215 4.45373 47.6103 4.05847 48.0334 3.82465C48.4565 3.57969 48.9743 3.45721 49.5866 3.45721C50.5665 3.45721 51.357 3.75784 51.9582 4.35909C52.5706 4.96034 52.8768 5.97357 52.8768 7.39876V11.9082H50.4551V7.44886C50.4551 6.30203 50.0376 5.72861 49.2025 5.72861C48.746 5.72861 48.3786 5.90119 48.1002 6.24636C47.8219 6.58039 47.6827 6.99236 47.6827 7.48226V11.9082Z" fill="#9E9E9E"/>
<path d="M62.4675 7.49897C62.4675 7.85526 62.4341 8.20043 62.3673 8.53446H56.5886C56.6554 9.01323 56.8892 9.3918 57.2901 9.67016C57.6909 9.93738 58.1418 10.071 58.6429 10.071C59.4891 10.071 60.2351 9.8149 60.8809 9.30272L61.9999 10.856C61.1425 11.6799 59.979 12.0919 58.5093 12.0919C57.1731 12.0919 56.0764 11.7244 55.2191 10.9896C54.3729 10.2436 53.9498 9.18025 53.9498 7.79959C53.9498 6.44121 54.384 5.38345 55.2525 4.62632C56.1321 3.85805 57.1843 3.47392 58.4091 3.47392C59.6116 3.47392 60.5858 3.83021 61.3318 4.54281C62.0889 5.24427 62.4675 6.22966 62.4675 7.49897ZM59.5281 5.86222C59.2163 5.58387 58.821 5.44469 58.3423 5.44469C57.8635 5.44469 57.4626 5.58387 57.1397 5.86222C56.8169 6.12945 56.6331 6.52471 56.5886 7.04803H59.979C59.9901 6.52471 59.8398 6.12945 59.5281 5.86222Z" fill="#9E9E9E"/>
<path d="M63.5675 0.233831H65.9725V6.89771L68.4109 3.67433H71.2501V3.82465L68.2272 7.54907L71.7178 11.7244V11.9082H68.8284L65.9725 8.28394V11.9082H63.5675V0.233831Z" fill="#9E9E9E"/>
<path d="M75.732 3.47392C77.1126 3.47392 78.1537 3.73557 78.8552 4.25888C79.5678 4.77106 79.9241 5.595 79.9241 6.7307V11.9082H77.6193V10.405H77.5692C77.3465 10.9061 76.9846 11.3069 76.4836 11.6075C75.9825 11.9082 75.4091 12.0585 74.7633 12.0585C73.9171 12.0585 73.2156 11.8191 72.6589 11.3403C72.1022 10.8504 71.8239 10.199 71.8239 9.38623C71.8239 8.52889 72.13 7.86083 72.7424 7.38206C73.366 6.90328 74.1676 6.66389 75.1474 6.66389C76.0048 6.66389 76.7229 6.80864 77.3019 7.09813V6.93112C77.3019 5.9513 76.6673 5.46139 75.398 5.46139C74.6408 5.46139 73.8058 5.61727 72.8927 5.92903L72.4084 4.10857C73.4773 3.68547 74.5852 3.47392 75.732 3.47392ZM75.5984 10.0376C76.0549 10.0376 76.4446 9.91511 76.7675 9.67016C77.0904 9.4252 77.2852 9.08561 77.352 8.65137C76.8399 8.38414 76.2887 8.25053 75.6986 8.25053C75.3089 8.25053 74.9971 8.32847 74.7633 8.48435C74.5406 8.64023 74.4293 8.86849 74.4293 9.16911C74.4293 9.44747 74.5406 9.66459 74.7633 9.82047C74.986 9.96522 75.2644 10.0376 75.5984 10.0376Z" fill="#9E9E9E"/>
<path d="M81.5406 3.67433H83.9623V4.57621C84.4856 3.84135 85.2205 3.47392 86.1669 3.47392C86.9463 3.47392 87.6199 3.72444 88.1878 4.22548L87.1857 6.12945C86.796 5.85109 86.3562 5.71191 85.8663 5.71191C85.3207 5.71191 84.8642 5.88449 84.4967 6.22966C84.1293 6.56368 83.9456 7.02576 83.9456 7.61588V11.9082H81.5406V3.67433Z" fill="#9E9E9E"/>
<path d="M91.1707 3.64093H88.7657V11.9082H91.1707V3.64093ZM89.0162 2.47183C88.7378 2.22687 88.5986 1.89284 88.5986 1.46974C88.5986 1.04664 88.7378 0.712606 89.0162 0.467651C89.3057 0.222697 89.623 0.10022 89.9682 0.10022C90.3133 0.10022 90.6251 0.222697 90.9034 0.467651C91.1929 0.712606 91.3377 1.04664 91.3377 1.46974C91.3377 1.89284 91.1929 2.22687 90.9034 2.47183C90.6251 2.71678 90.3133 2.83926 89.9682 2.83926C89.623 2.83926 89.3057 2.71678 89.0162 2.47183Z" fill="#9E9E9E"/>
<path d="M25.7109 6.47239L23.3963 13.2991L30.4498 14.686C31.6834 14.9208 32.5795 15.8037 32.5817 17.0097C32.5838 18.2157 31.6597 19.0642 30.4605 19.3118L23.3985 20.7009L25.7109 27.5276C26.1236 28.7034 25.8334 29.9224 24.789 30.521C23.7552 31.1133 22.5732 30.7558 21.7415 29.8233L16.9984 24.4028L12.2552 29.8233C11.445 30.7429 10.2501 31.124 9.20778 30.521C8.16545 29.918 7.87532 28.7164 8.28581 27.5276L10.5983 20.7009L3.53623 19.314C2.33702 19.0663 1.41289 18.2178 1.41504 17.0118C1.41719 15.808 2.31338 14.9229 3.54698 14.6882L10.5983 13.2991L8.28581 6.47239C7.87317 5.29655 8.16331 4.07764 9.20778 3.47896C10.2415 2.88673 11.4235 3.24422 12.2552 4.17671L16.9984 9.59718L21.7415 4.17671C22.5517 3.25714 23.7466 2.87596 24.789 3.47896C25.8313 4.08195 26.1214 5.28363 25.7109 6.47239Z" fill="#651FFF"/>
<path d="M46.82 17.86C47.832 17.86 48.734 18.102 49.526 18.586C50.318 19.0553 50.934 19.7227 51.374 20.588C51.814 21.4387 52.034 22.414 52.034 23.514C52.034 24.614 51.814 25.5967 51.374 26.462C50.934 27.3127 50.318 27.98 49.526 28.464C48.734 28.9333 47.832 29.168 46.82 29.168C45.4707 29.168 44.3487 28.7427 43.454 27.892V33.656H40V18.08H42.992L43.212 19.356C44.1213 18.3587 45.324 17.86 46.82 17.86ZM46.006 26.264C46.7687 26.264 47.392 26.0147 47.876 25.516C48.36 25.0027 48.602 24.3353 48.602 23.514C48.602 22.6927 48.36 22.0327 47.876 21.534C47.392 21.0207 46.7687 20.764 46.006 20.764C45.2433 20.764 44.62 21.0207 44.136 21.534C43.6667 22.0473 43.432 22.7073 43.432 23.514C43.432 24.3207 43.6667 24.9807 44.136 25.494C44.62 26.0073 45.2433 26.264 46.006 26.264Z" fill="black"/>
<path d="M58.2543 17.838C61.7743 17.838 63.7763 19.048 63.7763 22.128V28.948H60.6303C60.6303 28.42 60.6523 27.848 60.7403 26.968H60.6743C60.1023 28.266 58.6943 29.146 56.9783 29.146C54.8003 29.146 53.1063 27.826 53.1063 25.626C53.1063 23.316 54.9983 22.04 57.4843 22.04C58.5183 22.04 59.5743 22.238 60.3223 22.612V22.392C60.3223 20.984 59.3983 20.456 57.8143 20.456C56.7583 20.456 55.6143 20.698 54.5143 21.072L53.8763 18.674C55.3723 18.08 56.6703 17.838 58.2543 17.838ZM58.0783 26.484C59.2663 26.484 60.2123 25.824 60.3883 24.658C59.7943 24.35 58.8923 24.13 58.2103 24.13C57.1983 24.13 56.5383 24.548 56.5383 25.34C56.5383 26.11 57.2423 26.484 58.0783 26.484Z" fill="black"/>
<path d="M72.2967 17.838C72.7954 17.838 73.294 17.9333 73.7927 18.124C74.2914 18.3 74.724 18.564 75.0907 18.916L73.6387 21.446C73.3307 21.2553 73.0447 21.116 72.7807 21.028C72.5167 20.94 72.238 20.896 71.9447 20.896C71.2114 20.896 70.632 21.1307 70.2067 21.6C69.7814 22.0693 69.5687 22.7587 69.5687 23.668V28.948H66.1147V18.08H69.1287L69.3927 19.444C70.0967 18.3733 71.0647 17.838 72.2967 17.838Z" fill="black"/>
<path d="M83.8233 28.53C82.9726 28.9553 82.012 29.168 80.9413 29.168C79.7533 29.168 78.8146 28.838 78.1253 28.178C77.436 27.5033 77.0913 26.4253 77.0913 24.944V20.83H75.2433V18.08H77.0913V15.374L80.5233 15V18.08H83.2293V20.83H80.5233V24.944C80.5233 25.384 80.6333 25.714 80.8533 25.934C81.0733 26.1393 81.374 26.242 81.7553 26.242C82.1806 26.242 82.5986 26.1393 83.0093 25.934L83.8233 28.53Z" fill="black"/>
<path d="M91.8495 17.838C93.1989 17.838 94.2695 18.278 95.0615 19.158C95.8682 20.038 96.2715 21.2553 96.2715 22.81V28.948H92.8175V23.008C92.8175 22.304 92.6415 21.754 92.2895 21.358C91.9375 20.962 91.4535 20.764 90.8375 20.764C90.1629 20.764 89.6202 20.9913 89.2095 21.446C88.7989 21.9007 88.5935 22.4947 88.5935 23.228V28.948H85.1395V18.08H88.1315L88.3515 19.356C88.7769 18.872 89.2829 18.498 89.8695 18.234C90.4709 17.97 91.1309 17.838 91.8495 17.838Z" fill="black"/>
<path d="M109.145 23.14C109.145 23.58 109.101 24.064 109.013 24.504H101.401C101.599 25.846 102.897 26.528 104.107 26.528C105.185 26.528 106.197 26.198 107.055 25.516L108.529 27.562C107.407 28.64 105.691 29.19 103.931 29.19C100.587 29.19 97.9251 27.32 97.9251 23.536C97.9251 19.774 100.785 17.838 103.799 17.838C106.857 17.838 109.145 19.708 109.145 23.14ZM103.711 20.434C102.523 20.434 101.533 21.116 101.401 22.546H105.867C105.889 21.116 104.899 20.434 103.711 20.434Z" fill="black"/>
<path d="M116.985 17.838C117.484 17.838 117.982 17.9333 118.481 18.124C118.98 18.3 119.412 18.564 119.779 18.916L118.327 21.446C118.019 21.2553 117.733 21.116 117.469 21.028C117.205 20.94 116.926 20.896 116.633 20.896C115.9 20.896 115.32 21.1307 114.895 21.6C114.47 22.0693 114.257 22.7587 114.257 23.668V28.948H110.803V18.08H113.817L114.081 19.444C114.785 18.3733 115.753 17.838 116.985 17.838Z" fill="black"/>
<path d="M124.862 29.234C122.94 29.234 121.268 28.75 119.846 27.782L121.166 25.406C121.694 25.7287 122.302 25.978 122.992 26.154C123.696 26.33 124.392 26.418 125.082 26.418C126.035 26.418 126.512 26.1613 126.512 25.648C126.512 25.384 126.38 25.186 126.116 25.054C125.852 24.922 125.412 24.834 124.796 24.79C123.417 24.7167 122.317 24.372 121.496 23.756C120.689 23.14 120.286 22.3333 120.286 21.336C120.286 20.2507 120.726 19.3927 121.606 18.762C122.486 18.1167 123.674 17.794 125.17 17.794C126.02 17.794 126.827 17.8967 127.59 18.102C128.367 18.3073 129.034 18.5933 129.592 18.96L128.25 21.27C127.428 20.8007 126.453 20.566 125.324 20.566C124.209 20.566 123.652 20.83 123.652 21.358C123.652 21.578 123.762 21.7467 123.982 21.864C124.216 21.9813 124.605 22.0693 125.148 22.128C126.702 22.2453 127.883 22.5973 128.69 23.184C129.511 23.7707 129.922 24.592 129.922 25.648C129.922 26.7627 129.474 27.6427 128.58 28.288C127.685 28.9187 126.446 29.234 124.862 29.234Z" fill="black"/>
</svg>
