<svg width="236" height="68" viewBox="0 0 236 68" fill="none" xmlns="http://www.w3.org/2000/svg">
<path d="M10.5829 62.4124L48.2809 49.1983C55.1171 47.0064 60 41.33 60 33.993C60 26.7313 55.1708 21.101 48.492 18.8422L10.5829 5.56946C6.90832 4.26436 2.88196 5.17626 0.941198 8.57705C-0.999565 11.9737 0.212895 15.8806 3.18818 18.5201L20.6468 33.993L3.18818 49.466C0.212895 52.0888 -0.999565 56.0124 0.941198 59.409C2.88196 62.8056 6.88349 63.7552 10.5829 62.4166V62.4124Z" fill="#F22929"/>
<path d="M91.3653 23.8163H86.6221V14.9645C86.6221 12.5595 85.6757 11.357 83.7829 11.357C82.8699 11.357 82.1461 11.7133 81.6117 12.4259C81.0772 13.1385 80.81 13.9958 80.81 14.9979V23.8163H76V7.31526H80.5428V9.18583C81.389 7.69383 82.8365 6.94783 84.8852 6.94783C87.1788 6.94783 88.7822 7.97219 89.6952 10.0209C90.4301 8.90747 91.2206 8.11693 92.0668 7.64929C92.913 7.15938 93.9485 6.91443 95.1733 6.91443C97.1329 6.91443 98.714 7.51568 99.9165 8.71819C101.141 9.92069 101.754 11.9471 101.754 14.7975V23.8163H96.9102V14.8977C96.9102 12.6041 96.0752 11.4572 94.405 11.4572C93.492 11.4572 92.7571 11.8024 92.2004 12.4927C91.6437 13.1608 91.3653 13.9847 91.3653 14.9645V23.8163Z" fill="#9E9E9E"/>
<path d="M120.935 14.9979C120.935 15.7105 120.868 16.4009 120.735 17.0689H109.177C109.311 18.0265 109.778 18.7836 110.58 19.3403C111.382 19.8748 112.284 20.142 113.286 20.142C114.978 20.142 116.47 19.6298 117.762 18.6055L120 21.7119C118.285 23.3598 115.958 24.1837 113.019 24.1837C110.346 24.1837 108.153 23.4489 106.438 21.9791C104.746 20.4872 103.9 18.3605 103.9 15.5992C103.9 12.8824 104.768 10.7669 106.505 9.25263C108.264 7.7161 110.369 6.94783 112.818 6.94783C115.223 6.94783 117.172 7.66043 118.664 9.08562C120.178 10.4885 120.935 12.4593 120.935 14.9979ZM115.056 11.7244C114.433 11.1677 113.642 10.8894 112.685 10.8894C111.727 10.8894 110.925 11.1677 110.279 11.7244C109.634 12.2589 109.266 13.0494 109.177 14.0961H115.958C115.98 13.0494 115.68 12.2589 115.056 11.7244Z" fill="#9E9E9E"/>
<path d="M123.135 0.467661H127.945V13.7954L132.822 7.34866H138.5V7.64929L132.454 15.0981L139.436 23.4489V23.8163H133.657L127.945 16.5679V23.8163H123.135V0.467661Z" fill="#9E9E9E"/>
<path d="M147.464 6.94783C150.225 6.94783 152.307 7.47114 153.71 8.51777C155.136 9.54212 155.848 11.19 155.848 13.4614V23.8163H151.239V20.81H151.138C150.693 21.8121 149.969 22.6138 148.967 23.2151C147.965 23.8163 146.818 24.1169 145.527 24.1169C143.834 24.1169 142.431 23.6382 141.318 22.6806C140.204 21.7008 139.648 20.3981 139.648 18.7725C139.648 17.0578 140.26 15.7217 141.485 14.7641C142.732 13.8066 144.335 13.3278 146.295 13.3278C148.01 13.3278 149.446 13.6173 150.604 14.1963V13.8622C150.604 11.9026 149.335 10.9228 146.796 10.9228C145.282 10.9228 143.612 11.2345 141.785 11.8581L140.817 8.21714C142.955 7.37093 145.17 6.94783 147.464 6.94783ZM147.197 20.0752C148.11 20.0752 148.889 19.8302 149.535 19.3403C150.181 18.8504 150.57 18.1712 150.704 17.3027C149.68 16.7683 148.577 16.5011 147.397 16.5011C146.618 16.5011 145.994 16.6569 145.527 16.9687C145.081 17.2805 144.859 17.737 144.859 18.3382C144.859 18.8949 145.081 19.3292 145.527 19.6409C145.972 19.9304 146.529 20.0752 147.197 20.0752Z" fill="#9E9E9E"/>
<path d="M159.081 7.34866H163.925V9.15242C164.971 7.6827 166.441 6.94783 168.334 6.94783C169.893 6.94783 171.24 7.44887 172.376 8.45096L170.371 12.2589C169.592 11.7022 168.712 11.4238 167.733 11.4238C166.641 11.4238 165.728 11.769 164.993 12.4593C164.259 13.1274 163.891 14.0515 163.891 15.2318V23.8163H159.081V7.34866Z" fill="#9E9E9E"/>
<path d="M178.341 7.28186H173.531V23.8163H178.341V7.28186ZM174.032 4.94366C173.476 4.45375 173.197 3.78569 173.197 2.93948C173.197 2.09327 173.476 1.42521 174.032 0.935302C174.611 0.445394 175.246 0.200439 175.936 0.200439C176.627 0.200439 177.25 0.445394 177.807 0.935302C178.386 1.42521 178.675 2.09327 178.675 2.93948C178.675 3.78569 178.386 4.45375 177.807 4.94366C177.25 5.43356 176.627 5.67852 175.936 5.67852C175.246 5.67852 174.611 5.43356 174.032 4.94366Z" fill="#9E9E9E"/>
<path d="M75.9992 34.2088H83.2142V41.1232H89.4773V47.1357H83.1641V56.4551C83.1641 58.6597 84.0994 59.762 85.97 59.762C87.1725 59.762 88.1745 59.5616 88.9762 59.1608L90.6297 65.1733C88.9929 65.8079 87.256 66.1754 85.4188 66.2756C82.5128 66.4092 80.2079 65.7244 78.5044 64.2213C76.8343 62.6848 75.9992 60.096 75.9992 56.4551V47.1357H71.59V41.1232H75.9992V34.2088Z" fill="black"/>
<path d="M103.429 40.4217C107.571 40.4217 110.694 41.2067 112.798 42.7766C114.936 44.3132 116.005 46.785 116.005 50.1921V65.7244H109.09V61.215H108.94C108.272 62.7182 107.186 63.9207 105.683 64.8226C104.18 65.7244 102.46 66.1754 100.523 66.1754C97.9839 66.1754 95.8795 65.4572 94.2094 64.0209C92.5392 62.5512 91.7042 60.5971 91.7042 58.1587C91.7042 55.5867 92.6227 53.5825 94.4599 52.1462C96.3305 50.7098 98.7355 49.9917 101.675 49.9917C104.247 49.9917 106.401 50.4259 108.138 51.2944V50.7933C108.138 47.8539 106.234 46.3841 102.427 46.3841C100.155 46.3841 97.6499 46.8518 94.9108 47.7871L93.4578 42.3257C96.6645 41.0564 99.9881 40.4217 103.429 40.4217ZM103.028 60.1127C104.397 60.1127 105.566 59.7453 106.535 59.0105C107.504 58.2756 108.088 57.2568 108.289 55.9541C106.752 55.1524 105.099 54.7516 103.328 54.7516C102.159 54.7516 101.224 54.9854 100.523 55.453C99.8545 55.9207 99.5204 56.6054 99.5204 57.5073C99.5204 58.3424 99.8545 58.9937 100.523 59.4614C101.191 59.8956 102.026 60.1127 103.028 60.1127Z" fill="black"/>
<path d="M120.955 30.7015H128.119V65.7244H120.955V30.7015Z" fill="black"/>
<path d="M157.333 52.4969C157.333 53.5658 157.233 54.6013 157.032 55.6034H139.696C139.897 57.0397 140.598 58.1754 141.801 59.0105C143.003 59.8121 144.356 60.213 145.859 60.213C148.398 60.213 150.636 59.4447 152.573 57.9082L155.93 62.5679C153.358 65.0397 149.868 66.2756 145.458 66.2756C141.45 66.2756 138.16 65.1733 135.588 62.9687C133.049 60.7307 131.78 57.5407 131.78 53.3988C131.78 49.3236 133.083 46.1503 135.688 43.8789C138.327 41.5741 141.483 40.4217 145.158 40.4217C148.765 40.4217 151.688 41.4906 153.926 43.6284C156.197 45.7328 157.333 48.6889 157.333 52.4969ZM148.515 47.5867C147.579 46.7516 146.394 46.334 144.957 46.334C143.521 46.334 142.318 46.7516 141.35 47.5867C140.381 48.3883 139.83 49.5741 139.696 51.1441H149.868C149.901 49.5741 149.45 48.3883 148.515 47.5867Z" fill="black"/>
<path d="M185.735 65.7244H178.47V52.6472C178.47 48.8059 176.767 46.8852 173.359 46.8852C171.723 46.8518 170.37 47.4363 169.301 48.6388C168.265 49.8414 167.748 51.2777 167.748 52.9478V65.7244H160.633V40.9729H167.397V44.1294C169.368 41.5574 172.04 40.3048 175.414 40.3716C182.295 40.3716 185.735 44.4468 185.735 52.5971V65.7244Z" fill="black"/>
<path d="M193.036 34.2088H200.251V41.1232H206.514V47.1357H200.201V56.4551C200.201 58.6597 201.136 59.762 203.007 59.762C204.209 59.762 205.211 59.5616 206.013 59.1608L207.666 65.1733C206.03 65.8079 204.293 66.1754 202.456 66.2756C199.55 66.4092 197.245 65.7244 195.541 64.2213C193.871 62.6848 193.036 60.096 193.036 56.4551V47.1357H188.627V41.1232H193.036V34.2088Z" fill="black"/>
<path d="M220.465 40.4217C224.607 40.4217 227.73 41.2067 229.835 42.7766C231.973 44.3132 233.042 46.785 233.042 50.1921V65.7244H226.127V61.215H225.977C225.309 62.7182 224.223 63.9207 222.72 64.8226C221.217 65.7244 219.497 66.1754 217.559 66.1754C215.021 66.1754 212.916 65.4572 211.246 64.0209C209.576 62.5512 208.741 60.5971 208.741 58.1587C208.741 55.5867 209.66 53.5825 211.497 52.1462C213.367 50.7098 215.772 49.9917 218.712 49.9917C221.284 49.9917 223.438 50.4259 225.175 51.2944V50.7933C225.175 47.8539 223.271 46.3841 219.463 46.3841C217.192 46.3841 214.687 46.8518 211.948 47.7871L210.495 42.3257C213.701 41.0564 217.025 40.4217 220.465 40.4217ZM220.065 60.1127C221.434 60.1127 222.603 59.7453 223.572 59.0105C224.541 58.2756 225.125 57.2568 225.325 55.9541C223.789 55.1524 222.135 54.7516 220.365 54.7516C219.196 54.7516 218.261 54.9854 217.559 55.453C216.891 55.9207 216.557 56.6054 216.557 57.5073C216.557 58.3424 216.891 58.9937 217.559 59.4614C218.227 59.8956 219.062 60.1127 220.065 60.1127Z" fill="black"/>
</svg>
