<svg width="132" height="34" viewBox="0 0 132 34" fill="none" xmlns="http://www.w3.org/2000/svg">
<path d="M31.6719 14.4871L23.9796 12.981L26.5046 5.5673C26.9524 4.27634 26.6359 2.97135 25.4988 2.31652C24.3617 1.66168 23.0582 2.07563 22.1743 3.07425L17 8.96074L11.8257 3.07425C10.9184 2.0616 9.62888 1.67337 8.50117 2.31652C7.36175 2.96667 7.04524 4.29037 7.49538 5.5673L10.0181 12.981L2.32575 14.4894C0.980006 14.7443 0.00234858 15.7055 4.08087e-06 17.0129C-0.00234042 18.3225 1.0058 19.244 2.31403 19.5129L10.0181 21.019L7.49538 28.4327C7.04758 29.7237 7.36409 31.0287 8.50117 31.6835C9.63826 32.3383 10.9418 31.9244 11.8257 30.9257L17 25.0393L22.1743 30.9257C23.0816 31.9384 24.3711 32.3266 25.4988 31.6835C26.6383 31.0333 26.9548 29.7096 26.5046 28.4327L23.9819 21.019L31.686 19.5106C32.9942 19.2416 34.0023 18.3202 34 17.0105C33.9976 15.7009 33.02 14.742 31.6742 14.4871H31.6719Z" fill="#651FFF"/>
<path d="M48.1827 11.9082H45.8111V7.48227C45.8111 6.27976 45.3379 5.67851 44.3914 5.67851C43.9349 5.67851 43.5731 5.85666 43.3058 6.21295C43.0386 6.56925 42.905 6.99792 42.905 7.49897V11.9082H40.5V3.65763H42.7714V4.59291C43.1945 3.84691 43.9182 3.47392 44.9426 3.47392C46.0894 3.47392 46.8911 3.98609 47.3476 5.01045C47.715 4.45373 48.1103 4.05847 48.5334 3.82465C48.9565 3.57969 49.4743 3.45721 50.0866 3.45721C51.0665 3.45721 51.857 3.75784 52.4582 4.35909C53.0706 4.96034 53.3768 5.97357 53.3768 7.39876V11.9082H50.9551V7.44886C50.9551 6.30203 50.5376 5.72861 49.7025 5.72861C49.246 5.72861 48.8786 5.90119 48.6002 6.24636C48.3219 6.58039 48.1827 6.99236 48.1827 7.48227V11.9082Z" fill="#9E9E9E"/>
<path d="M62.9675 7.49897C62.9675 7.85526 62.9341 8.20043 62.8673 8.53446H57.0886C57.1554 9.01323 57.3892 9.3918 57.7901 9.67016C58.1909 9.93738 58.6418 10.071 59.1429 10.071C59.9891 10.071 60.7351 9.8149 61.3809 9.30273L62.4999 10.856C61.6425 11.6799 60.479 12.0919 59.0093 12.0919C57.6731 12.0919 56.5764 11.7244 55.7191 10.9896C54.8729 10.2436 54.4498 9.18025 54.4498 7.79959C54.4498 6.44121 54.884 5.38345 55.7525 4.62632C56.6321 3.85805 57.6843 3.47392 58.9091 3.47392C60.1116 3.47392 61.0858 3.83021 61.8318 4.54281C62.5889 5.24427 62.9675 6.22966 62.9675 7.49897ZM60.0281 5.86222C59.7163 5.58387 59.321 5.44469 58.8423 5.44469C58.3635 5.44469 57.9626 5.58387 57.6397 5.86222C57.3169 6.12945 57.1331 6.52471 57.0886 7.04803H60.479C60.4901 6.52471 60.3398 6.12945 60.0281 5.86222Z" fill="#9E9E9E"/>
<path d="M64.0675 0.233831H66.4725V6.89771L68.9109 3.67433H71.7501V3.82465L68.7272 7.54907L72.2178 11.7244V11.9082H69.3284L66.4725 8.28394V11.9082H64.0675V0.233831Z" fill="#9E9E9E"/>
<path d="M76.232 3.47392C77.6126 3.47392 78.6537 3.73557 79.3552 4.25888C80.0678 4.77106 80.4241 5.595 80.4241 6.7307V11.9082H78.1193V10.405H78.0692C77.8465 10.9061 77.4846 11.3069 76.9836 11.6075C76.4825 11.9082 75.9091 12.0585 75.2633 12.0585C74.4171 12.0585 73.7156 11.8191 73.1589 11.3403C72.6022 10.8504 72.3239 10.199 72.3239 9.38623C72.3239 8.52889 72.63 7.86083 73.2424 7.38206C73.866 6.90328 74.6676 6.66389 75.6474 6.66389C76.5048 6.66389 77.2229 6.80864 77.8019 7.09813V6.93112C77.8019 5.9513 77.1673 5.46139 75.898 5.46139C75.1408 5.46139 74.3058 5.61727 73.3927 5.92903L72.9084 4.10857C73.9773 3.68547 75.0852 3.47392 76.232 3.47392ZM76.0984 10.0376C76.5549 10.0376 76.9446 9.91511 77.2675 9.67016C77.5904 9.4252 77.7852 9.08561 77.852 8.65137C77.3399 8.38414 76.7887 8.25053 76.1986 8.25053C75.8089 8.25053 75.4971 8.32847 75.2633 8.48435C75.0406 8.64023 74.9293 8.86849 74.9293 9.16911C74.9293 9.44747 75.0406 9.66459 75.2633 9.82047C75.486 9.96522 75.7644 10.0376 76.0984 10.0376Z" fill="#9E9E9E"/>
<path d="M82.0406 3.67433H84.4623V4.57621C84.9856 3.84135 85.7205 3.47392 86.6669 3.47392C87.4463 3.47392 88.1199 3.72444 88.6878 4.22548L87.6857 6.12945C87.296 5.85109 86.8562 5.71191 86.3663 5.71191C85.8207 5.71191 85.3642 5.88449 84.9967 6.22966C84.6293 6.56369 84.4456 7.02576 84.4456 7.61588V11.9082H82.0406V3.67433Z" fill="#9E9E9E"/>
<path d="M91.6707 3.64093H89.2657V11.9082H91.6707V3.64093ZM89.5162 2.47183C89.2378 2.22687 89.0986 1.89284 89.0986 1.46974C89.0986 1.04664 89.2378 0.712606 89.5162 0.467651C89.8057 0.222697 90.123 0.10022 90.4682 0.10022C90.8133 0.10022 91.1251 0.222697 91.4034 0.467651C91.6929 0.712606 91.8377 1.04664 91.8377 1.46974C91.8377 1.89284 91.6929 2.22687 91.4034 2.47183C91.1251 2.71678 90.8133 2.83926 90.4682 2.83926C90.123 2.83926 89.8057 2.71678 89.5162 2.47183Z" fill="#9E9E9E"/>
<path d="M46.3622 20.7108C48.4332 20.7108 49.9948 21.1033 51.047 21.8883C52.1159 22.6566 52.6503 23.8925 52.6503 25.596V33.3622H49.1931V31.1075H49.118C48.7839 31.8591 48.2411 32.4603 47.4896 32.9113C46.738 33.3622 45.8779 33.5877 44.9092 33.5877C43.6399 33.5877 42.5877 33.2286 41.7526 32.5104C40.9175 31.7756 40.5 30.7985 40.5 29.5793C40.5 28.2933 40.9593 27.2912 41.8779 26.5731C42.8132 25.8549 44.0157 25.4958 45.4854 25.4958C46.7714 25.4958 47.8486 25.7129 48.7171 26.1472V25.8966C48.7171 24.4269 47.7651 23.6921 45.8612 23.6921C44.7255 23.6921 43.4729 23.9259 42.1033 24.3935L41.3768 21.6628C42.9802 21.0282 44.642 20.7108 46.3622 20.7108ZM46.1618 30.5564C46.8466 30.5564 47.4311 30.3726 47.9154 30.0052C48.3998 29.6378 48.6921 29.1284 48.7923 28.477C48.024 28.0762 47.1973 27.8758 46.3121 27.8758C45.7276 27.8758 45.2599 27.9927 44.9092 28.2265C44.5752 28.4603 44.4081 28.8027 44.4081 29.2536C44.4081 29.6712 44.5752 29.9969 44.9092 30.2307C45.2432 30.4478 45.6608 30.5564 46.1618 30.5564Z" fill="black"/>
<path d="M63.668 29.3789L65.9477 31.7338C64.6617 33.0031 63.05 33.6378 61.1127 33.6378C59.1753 33.6378 57.5636 33.095 56.2776 32.0094C54.9916 30.9238 54.3486 29.3204 54.3486 27.1994C54.3486 25.1952 54.9999 23.6169 56.3026 22.4645C57.6054 21.2954 59.2003 20.7108 61.0876 20.7108C62.9916 20.7108 64.4864 21.2787 65.572 22.4144L63.5678 24.6941C62.9331 24.2098 62.1565 23.9676 61.2379 23.9676C60.3026 23.9676 59.526 24.2599 58.9081 24.8445C58.2901 25.4123 57.9811 26.1973 57.9811 27.1994C57.9811 28.1513 58.2901 28.9113 58.9081 29.4791C59.526 30.0303 60.2776 30.3058 61.1628 30.3058C61.597 30.3058 62.0479 30.2223 62.5156 30.0553C62.9999 29.8883 63.3841 29.6628 63.668 29.3789Z" fill="black"/>
<path d="M75.5087 29.3789L77.7884 31.7338C76.5024 33.0031 74.8907 33.6378 72.9533 33.6378C71.016 33.6378 69.4043 33.095 68.1183 32.0094C66.8323 30.9238 66.1893 29.3204 66.1893 27.1994C66.1893 25.1952 66.8406 23.6169 68.1433 22.4645C69.446 21.2954 71.041 20.7108 72.9283 20.7108C74.8323 20.7108 76.327 21.2787 77.4126 22.4144L75.4085 24.6941C74.7738 24.2098 73.9972 23.9676 73.0786 23.9676C72.1433 23.9676 71.3667 24.2599 70.7488 24.8445C70.1308 25.4123 69.8218 26.1973 69.8218 27.1994C69.8218 28.1513 70.1308 28.9113 70.7488 29.4791C71.3667 30.0303 72.1183 30.3058 73.0035 30.3058C73.4377 30.3058 73.8886 30.2223 74.3563 30.0553C74.8406 29.8883 75.2247 29.6628 75.5087 29.3789Z" fill="black"/>
<path d="M84.794 33.6378C82.7398 33.6378 81.0947 33.0449 79.8588 31.8591C78.6395 30.6566 78.0299 29.1033 78.0299 27.1994C78.0299 25.3121 78.6479 23.7589 79.8838 22.5397C81.1364 21.3204 82.7732 20.7108 84.794 20.7108C86.8316 20.7108 88.4684 21.3204 89.7043 22.5397C90.9569 23.7589 91.5832 25.3121 91.5832 27.1994C91.5832 29.1033 90.9652 30.6566 89.7293 31.8591C88.5101 33.0449 86.865 33.6378 84.794 33.6378ZM84.794 30.4311C85.8295 30.4311 86.6061 30.1221 87.1239 29.5042C87.6583 28.8695 87.9256 28.1012 87.9256 27.1994C87.9256 26.3309 87.6583 25.571 87.1239 24.9196C86.5894 24.2683 85.8128 23.9426 84.794 23.9426C83.7919 23.9426 83.0237 24.2683 82.4892 24.9196C81.9548 25.571 81.6876 26.3309 81.6876 27.1994C81.6876 28.0678 81.9464 28.8278 82.4642 29.4791C82.9986 30.1138 83.7752 30.4311 84.794 30.4311Z" fill="black"/>
<path d="M93.2108 20.9864H96.8434V27.525C96.8434 29.4457 97.6951 30.406 99.3987 30.406C100.217 30.4227 100.885 30.1305 101.403 29.5292C101.937 28.928 102.205 28.2098 102.205 27.3747V20.9864H105.762V33.3622H102.38V31.7338C101.428 33.0198 100.092 33.6461 98.3715 33.6127C94.931 33.6127 93.2108 31.5918 93.2108 27.5501V20.9864Z" fill="black"/>
<path d="M120.836 33.3622H117.204V26.8236C117.204 24.9029 116.352 23.9426 114.648 23.9426C113.83 23.9259 113.153 24.2181 112.619 24.8194C112.101 25.4207 111.842 26.1388 111.842 26.9739V33.3622H108.285V20.9864H111.667V22.5647C112.652 21.2787 113.989 20.6524 115.675 20.6858C119.116 20.6858 120.836 22.7234 120.836 26.7985V33.3622Z" fill="black"/>
<path d="M124.486 17.6044H128.094V21.0616H131.226V24.0678H128.069V28.7275C128.069 29.8298 128.537 30.381 129.472 30.381C130.073 30.381 130.574 30.2808 130.975 30.0804L131.802 33.0866C130.983 33.404 130.115 33.5877 129.196 33.6378C127.743 33.7046 126.591 33.3622 125.739 32.6106C124.904 31.8424 124.486 30.548 124.486 28.7275V24.0678H122.282V21.0616H124.486V17.6044Z" fill="black"/>
</svg>
