<svg width="28" height="14" viewBox="0 0 28 14" fill="none" xmlns="http://www.w3.org/2000/svg">
<path opacity="0.35" d="M1.09863 4.5C1.09863 2.567 2.66564 1 4.59863 1H21.5986C23.5316 1 25.0986 2.567 25.0986 4.5V9.5C25.0986 11.433 23.5316 13 21.5986 13H4.59863C2.66564 13 1.09863 11.433 1.09863 9.5V4.5Z" stroke="white"/>
<path opacity="0.4" d="M26.5986 5.5V9.72034C27.4477 9.36291 27.9998 8.5314 27.9998 7.61017C27.9998 6.68894 27.4477 5.85744 26.5986 5.5Z" fill="white"/>
<path d="M2.59863 4.5C2.59863 3.39543 3.49406 2.5 4.59863 2.5H21.5986C22.7032 2.5 23.5986 3.39543 23.5986 4.5V9.5C23.5986 10.6046 22.7032 11.5 21.5986 11.5H4.59863C3.49406 11.5 2.59863 10.6046 2.59863 9.5V4.5Z" fill="white"/>
</svg>
