<svg width="16" height="16" viewBox="0 0 16 16" fill="none" xmlns="http://www.w3.org/2000/svg">
<path d="M1 8.66667L4.33333 12L11.6667 4" stroke="#3B82F6" stroke-width="1.2" stroke-linecap="round" stroke-linejoin="round"/>
<path d="M7.43746 12L7.01977 12.4307C7.13496 12.5424 7.29009 12.6033 7.4505 12.5999C7.61092 12.5964 7.76325 12.5288 7.87347 12.4122L7.43746 12ZM15.436 4.41217C15.6636 4.17137 15.6529 3.79162 15.4121 3.56398C15.1713 3.33634 14.7916 3.34702 14.5639 3.58783L15.436 4.41217ZM7.25045 10.9829L6.81971 10.5652L5.98434 11.4267L6.41508 11.8444L7.25045 10.9829ZM7.87347 12.4122L15.436 4.41217L14.5639 3.58783L7.00144 11.5878L7.87347 12.4122ZM6.41508 11.8444L7.01977 12.4307L7.85514 11.5693L7.25045 10.9829L6.41508 11.8444Z" fill="#3B82F6"/>
</svg>
