<svg width="19" height="13" viewBox="0 0 19 13" fill="none" xmlns="http://www.w3.org/2000/svg">
<path d="M10.5986 3.5C10.5986 2.94772 11.0463 2.5 11.5986 2.5H12.5986C13.1509 2.5 13.5986 2.94772 13.5986 3.5V11.5C13.5986 12.0523 13.1509 12.5 12.5986 12.5H11.5986C11.0463 12.5 10.5986 12.0523 10.5986 11.5V3.5Z" fill="white"/>
<path d="M15.5986 1.5C15.5986 0.947715 16.0463 0.5 16.5986 0.5H17.5986C18.1509 0.5 18.5986 0.947715 18.5986 1.5V11.5C18.5986 12.0523 18.1509 12.5 17.5986 12.5H16.5986C16.0463 12.5 15.5986 12.0523 15.5986 11.5V1.5Z" fill="white"/>
<path d="M5.59863 7C5.59863 6.44772 6.04635 6 6.59863 6H7.59863C8.15092 6 8.59863 6.44772 8.59863 7V11.5C8.59863 12.0523 8.15092 12.5 7.59863 12.5H6.59863C6.04635 12.5 5.59863 12.0523 5.59863 11.5V7Z" fill="white"/>
<path d="M0.598633 9.5C0.598633 8.94772 1.04635 8.5 1.59863 8.5H2.59863C3.15092 8.5 3.59863 8.94772 3.59863 9.5V11.5C3.59863 12.0523 3.15092 12.5 2.59863 12.5H1.59863C1.04635 12.5 0.598633 12.0523 0.598633 11.5V9.5Z" fill="white"/>
</svg>
