<svg width="18" height="13" viewBox="0 0 18 13" fill="none" xmlns="http://www.w3.org/2000/svg">
<path fill-rule="evenodd" clip-rule="evenodd" d="M9.0991 3.25354C11.5657 3.25365 13.9379 4.22107 15.7255 5.95583C15.8601 6.08976 16.0753 6.08807 16.2079 5.95205L17.4946 4.62647C17.5618 4.55747 17.5992 4.46402 17.5986 4.36678C17.5981 4.26954 17.5596 4.17654 17.4917 4.10835C12.7997 -0.48143 5.39771 -0.48143 0.705796 4.10835C0.63783 4.17649 0.599267 4.26946 0.598641 4.3667C0.598014 4.46394 0.635375 4.55742 0.702456 4.62647L1.9896 5.95205C2.12209 6.08828 2.33742 6.08997 2.47195 5.95583C4.25979 4.22095 6.6323 3.25354 9.0991 3.25354ZM9.13454 7.25539C10.4898 7.25531 11.7966 7.76948 12.8012 8.698C12.937 8.82978 13.1511 8.82692 13.2835 8.69156L14.5688 7.36598C14.6365 7.29645 14.674 7.20213 14.6731 7.10411C14.6721 7.0061 14.6327 6.91257 14.5636 6.84446C11.5045 3.93987 6.76716 3.93987 3.70808 6.84446C3.63898 6.91257 3.59956 7.00614 3.59865 7.10419C3.59774 7.20224 3.63543 7.29655 3.70326 7.36598L4.98817 8.69156C5.12062 8.82692 5.33465 8.82978 5.47052 8.698C6.47441 7.77009 7.78023 7.25596 9.13454 7.25539ZM11.7482 9.84273C11.7502 9.94102 11.7123 10.0358 11.6436 10.1046L9.42028 12.3949C9.35511 12.4622 9.26625 12.5001 9.17354 12.5001C9.08083 12.5001 8.99197 12.4622 8.9268 12.3949L6.70316 10.1046C6.63446 10.0357 6.59667 9.94094 6.59871 9.84265C6.60075 9.74436 6.64243 9.65128 6.71392 9.5854C8.13378 8.35955 10.2133 8.35955 11.6332 9.5854C11.7046 9.65133 11.7462 9.74444 11.7482 9.84273Z" fill="white"/>
</svg>
