<svg width="118" height="34" viewBox="0 0 118 34" fill="none" xmlns="http://www.w3.org/2000/svg">
<path d="M5.29147 31.2062L24.1405 24.5991C27.5585 23.5032 30 20.665 30 16.9965C30 13.3657 27.5854 10.5505 24.246 9.42108L5.29147 2.78473C3.45416 2.13218 1.44098 2.58813 0.470599 4.28852C-0.499783 5.98683 0.106447 7.9403 1.59409 9.26004L10.3234 16.9965L1.59409 24.733C0.106447 26.0444 -0.499783 28.0062 0.470599 29.7045C1.44098 31.4028 3.44175 31.8776 5.29147 31.2083V31.2062Z" fill="#F22929"/>
<path d="M45.6827 11.9082H43.3111V7.48227C43.3111 6.27976 42.8379 5.67851 41.8914 5.67851C41.4349 5.67851 41.0731 5.85666 40.8058 6.21295C40.5386 6.56925 40.405 6.99792 40.405 7.49897V11.9082H38V3.65763H40.2714V4.59291C40.6945 3.84691 41.4182 3.47392 42.4426 3.47392C43.5894 3.47392 44.3911 3.98609 44.8476 5.01045C45.215 4.45373 45.6103 4.05847 46.0334 3.82465C46.4565 3.57969 46.9743 3.45721 47.5866 3.45721C48.5665 3.45721 49.357 3.75784 49.9582 4.35909C50.5706 4.96034 50.8768 5.97357 50.8768 7.39876V11.9082H48.4551V7.44886C48.4551 6.30203 48.0376 5.72861 47.2025 5.72861C46.746 5.72861 46.3786 5.90119 46.1002 6.24636C45.8219 6.58039 45.6827 6.99236 45.6827 7.48227V11.9082Z" fill="#9E9E9E"/>
<path d="M60.4675 7.49897C60.4675 7.85526 60.4341 8.20043 60.3673 8.53446H54.5886C54.6554 9.01323 54.8892 9.3918 55.2901 9.67016C55.6909 9.93738 56.1418 10.071 56.6429 10.071C57.4891 10.071 58.2351 9.8149 58.8809 9.30273L59.9999 10.856C59.1425 11.6799 57.979 12.0919 56.5093 12.0919C55.1731 12.0919 54.0764 11.7244 53.2191 10.9896C52.3729 10.2436 51.9498 9.18025 51.9498 7.79959C51.9498 6.44121 52.384 5.38345 53.2525 4.62632C54.1321 3.85805 55.1843 3.47392 56.4091 3.47392C57.6116 3.47392 58.5858 3.83021 59.3318 4.54281C60.0889 5.24427 60.4675 6.22966 60.4675 7.49897ZM57.5281 5.86222C57.2163 5.58387 56.821 5.44469 56.3423 5.44469C55.8635 5.44469 55.4626 5.58387 55.1397 5.86222C54.8169 6.12945 54.6331 6.52471 54.5886 7.04803H57.979C57.9901 6.52471 57.8398 6.12945 57.5281 5.86222Z" fill="#9E9E9E"/>
<path d="M61.5675 0.233831H63.9725V6.89771L66.4109 3.67433H69.2501V3.82465L66.2272 7.54907L69.7178 11.7244V11.9082H66.8284L63.9725 8.28394V11.9082H61.5675V0.233831Z" fill="#9E9E9E"/>
<path d="M73.732 3.47392C75.1126 3.47392 76.1537 3.73557 76.8552 4.25888C77.5678 4.77106 77.9241 5.595 77.9241 6.7307V11.9082H75.6193V10.405H75.5692C75.3465 10.9061 74.9846 11.3069 74.4836 11.6075C73.9825 11.9082 73.4091 12.0585 72.7633 12.0585C71.9171 12.0585 71.2156 11.8191 70.6589 11.3403C70.1022 10.8504 69.8239 10.199 69.8239 9.38623C69.8239 8.52889 70.13 7.86083 70.7424 7.38206C71.366 6.90328 72.1676 6.66389 73.1474 6.66389C74.0048 6.66389 74.7229 6.80864 75.3019 7.09813V6.93112C75.3019 5.9513 74.6673 5.46139 73.398 5.46139C72.6408 5.46139 71.8058 5.61727 70.8927 5.92903L70.4084 4.10857C71.4773 3.68547 72.5852 3.47392 73.732 3.47392ZM73.5984 10.0376C74.0549 10.0376 74.4446 9.91511 74.7675 9.67016C75.0904 9.4252 75.2852 9.08561 75.352 8.65137C74.8399 8.38414 74.2887 8.25053 73.6986 8.25053C73.3089 8.25053 72.9971 8.32847 72.7633 8.48435C72.5406 8.64023 72.4293 8.86849 72.4293 9.16911C72.4293 9.44747 72.5406 9.66459 72.7633 9.82047C72.986 9.96522 73.2644 10.0376 73.5984 10.0376Z" fill="#9E9E9E"/>
<path d="M79.5406 3.67433H81.9623V4.57621C82.4856 3.84135 83.2205 3.47392 84.1669 3.47392C84.9463 3.47392 85.6199 3.72444 86.1878 4.22548L85.1857 6.12945C84.796 5.85109 84.3562 5.71191 83.8663 5.71191C83.3207 5.71191 82.8642 5.88449 82.4967 6.22966C82.1293 6.56369 81.9456 7.02576 81.9456 7.61588V11.9082H79.5406V3.67433Z" fill="#9E9E9E"/>
<path d="M89.1707 3.64093H86.7657V11.9082H89.1707V3.64093ZM87.0162 2.47183C86.7378 2.22687 86.5986 1.89284 86.5986 1.46974C86.5986 1.04664 86.7378 0.712606 87.0162 0.467651C87.3057 0.222697 87.623 0.10022 87.9682 0.10022C88.3133 0.10022 88.6251 0.222697 88.9034 0.467651C89.1929 0.712606 89.3377 1.04664 89.3377 1.46974C89.3377 1.89284 89.1929 2.22687 88.9034 2.47183C88.6251 2.71678 88.3133 2.83926 87.9682 2.83926C87.623 2.83926 87.3057 2.71678 87.0162 2.47183Z" fill="#9E9E9E"/>
<path d="M37.9996 17.1044H41.6071V20.5616H44.7386V23.5679H41.5821V28.2276C41.5821 29.3299 42.0497 29.881 42.985 29.881C43.5862 29.881 44.0873 29.7808 44.4881 29.5804L45.3148 32.5866C44.4965 32.904 43.628 33.0877 42.7094 33.1378C41.2564 33.2046 40.104 32.8622 39.2522 32.1107C38.4171 31.3424 37.9996 30.048 37.9996 28.2276V23.5679H35.795V20.5616H37.9996V17.1044Z" fill="black"/>
<path d="M51.7143 20.2109C53.7853 20.2109 55.3469 20.6033 56.399 21.3883C57.4679 22.1566 58.0024 23.3925 58.0024 25.096V32.8622H54.5452V30.6075H54.47C54.136 31.3591 53.5932 31.9603 52.8416 32.4113C52.0901 32.8622 51.2299 33.0877 50.2613 33.0877C48.992 33.0877 47.9398 32.7286 47.1047 32.0104C46.2696 31.2756 45.8521 30.2985 45.8521 29.0793C45.8521 27.7933 46.3114 26.7912 47.23 26.0731C48.1652 25.3549 49.3677 24.9958 50.8375 24.9958C52.1235 24.9958 53.2007 25.2129 54.0692 25.6472V25.3967C54.0692 23.9269 53.1172 23.1921 51.2132 23.1921C50.0775 23.1921 48.8249 23.4259 47.4554 23.8935L46.7289 21.1628C48.3322 20.5282 49.994 20.2109 51.7143 20.2109ZM51.5139 30.0564C52.1986 30.0564 52.7832 29.8727 53.2675 29.5052C53.7519 29.1378 54.0441 28.6284 54.1444 27.977C53.3761 27.5762 52.5494 27.3758 51.6642 27.3758C51.0796 27.3758 50.612 27.4927 50.2613 27.7265C49.9272 27.9603 49.7602 28.3027 49.7602 28.7537C49.7602 29.1712 49.9272 29.4969 50.2613 29.7307C50.5953 29.9478 51.0128 30.0564 51.5139 30.0564Z" fill="black"/>
<path d="M60.4773 15.3507H64.0597V32.8622H60.4773V15.3507Z" fill="black"/>
<path d="M78.6665 26.2484C78.6665 26.7829 78.6164 27.3006 78.5162 27.8017H69.8482C69.9484 28.5198 70.2991 29.0877 70.9003 29.5052C71.5016 29.9061 72.178 30.1065 72.9296 30.1065C74.1989 30.1065 75.3179 29.7223 76.2866 28.9541L77.9651 31.2839C76.679 32.5198 74.9337 33.1378 72.7292 33.1378C70.725 33.1378 69.0799 32.5866 67.7939 31.4843C66.5246 30.3653 65.8899 28.7704 65.8899 26.6994C65.8899 24.6618 66.5413 23.0752 67.844 21.9395C69.1634 20.7871 70.7417 20.2109 72.5788 20.2109C74.3826 20.2109 75.844 20.7453 76.963 21.8142C78.0987 22.8664 78.6665 24.3445 78.6665 26.2484ZM74.2573 23.7933C73.7897 23.3758 73.1968 23.167 72.4786 23.167C71.7605 23.167 71.1592 23.3758 70.6749 23.7933C70.1905 24.1942 69.915 24.7871 69.8482 25.572H74.9337C74.9504 24.7871 74.725 24.1942 74.2573 23.7933Z" fill="black"/>
<path d="M92.8676 32.8622H89.235V26.3236C89.235 24.4029 88.3832 23.4426 86.6797 23.4426C85.8613 23.4259 85.1849 23.7182 84.6505 24.3194C84.1327 24.9207 83.8739 25.6388 83.8739 26.4739V32.8622H80.3164V20.4864H83.6985V22.0647C84.6839 20.7787 86.02 20.1524 87.7068 20.1858C91.1473 20.1858 92.8676 22.2234 92.8676 26.2985V32.8622Z" fill="black"/>
<path d="M96.518 17.1044H100.125V20.5616H103.257V23.5679H100.1V28.2276C100.1 29.3299 100.568 29.881 101.503 29.881C102.105 29.881 102.606 29.7808 103.006 29.5804L103.833 32.5866C103.015 32.904 102.146 33.0877 101.228 33.1378C99.7748 33.2046 98.6223 32.8622 97.7706 32.1107C96.9355 31.3424 96.518 30.048 96.518 28.2276V23.5679H94.3134V20.5616H96.518V17.1044Z" fill="black"/>
<path d="M110.233 20.2109C112.304 20.2109 113.865 20.6033 114.917 21.3883C115.986 22.1566 116.521 23.3925 116.521 25.096V32.8622H113.064V30.6075H112.988C112.654 31.3591 112.112 31.9603 111.36 32.4113C110.608 32.8622 109.748 33.0877 108.78 33.0877C107.51 33.0877 106.458 32.7286 105.623 32.0104C104.788 31.2756 104.37 30.2985 104.37 29.0793C104.37 27.7933 104.83 26.7912 105.748 26.0731C106.684 25.3549 107.886 24.9958 109.356 24.9958C110.642 24.9958 111.719 25.2129 112.588 25.6472V25.3967C112.588 23.9269 111.636 23.1921 109.732 23.1921C108.596 23.1921 107.343 23.4259 105.974 23.8935L105.247 21.1628C106.851 20.5282 108.512 20.2109 110.233 20.2109ZM110.032 30.0564C110.717 30.0564 111.302 29.8727 111.786 29.5052C112.27 29.1378 112.563 28.6284 112.663 27.977C111.894 27.5762 111.068 27.3758 110.183 27.3758C109.598 27.3758 109.13 27.4927 108.78 27.7265C108.446 27.9603 108.279 28.3027 108.279 28.7537C108.279 29.1712 108.446 29.4969 108.78 29.7307C109.114 29.9478 109.531 30.0564 110.032 30.0564Z" fill="black"/>
</svg>
