<svg width="126" height="34" viewBox="0 0 126 34" fill="none" xmlns="http://www.w3.org/2000/svg">
<path d="M51.7395 21.234L49.858 23.619C48.957 22.983 47.9235 22.665 46.7575 22.665C46.1568 22.665 45.6887 22.7622 45.353 22.9565C45.035 23.1509 44.876 23.4159 44.876 23.7515C44.876 24.4759 45.5208 24.8557 46.8105 24.891C47.3935 24.9087 47.9147 24.9529 48.374 25.0235C48.851 25.0765 49.3545 25.2002 49.8845 25.3945C50.4322 25.5712 50.8827 25.8009 51.236 26.0835C51.5893 26.3662 51.8897 26.7725 52.137 27.3025C52.3843 27.8149 52.508 28.4155 52.508 29.1045C52.5257 30.3059 52.0575 31.3394 51.1035 32.205C50.1495 33.0707 48.7097 33.5035 46.784 33.5035C44.4697 33.5035 42.4203 32.7615 40.636 31.2775L42.279 28.5745C43.5687 29.6345 45.088 30.1822 46.837 30.2175C47.4023 30.2352 47.8705 30.138 48.2415 29.926C48.6302 29.714 48.8157 29.4402 48.798 29.1045C48.798 28.3802 48.056 27.9915 46.572 27.9385C45.9183 27.9032 45.2823 27.8149 44.664 27.6735C44.0633 27.5145 43.4803 27.2849 42.915 26.9845C42.3673 26.6665 41.9257 26.2337 41.59 25.686C41.2543 25.1207 41.0865 24.4759 41.0865 23.7515C41.0865 22.3559 41.6342 21.3047 42.7295 20.598C43.8248 19.8914 45.1587 19.538 46.731 19.538C48.7627 19.538 50.4322 20.1034 51.7395 21.234Z" fill="black"/>
<path d="M55.1669 16.3315H58.9828V19.9885H62.2954V23.1685H58.9564V28.0975C58.9564 29.2635 59.451 29.8465 60.4403 29.8465C61.0763 29.8465 61.6063 29.7405 62.0303 29.5285L62.9049 32.7085C62.0392 33.0442 61.1205 33.2385 60.1488 33.2915C58.6118 33.3622 57.3929 33 56.4918 32.205C55.6085 31.3924 55.1669 30.0232 55.1669 28.0975V23.1685H52.8348V19.9885H55.1669V16.3315Z" fill="black"/>
<path d="M63.8909 19.9355H67.7334V21.3665C68.5637 20.2005 69.7297 19.6175 71.2314 19.6175C72.4681 19.6175 73.5369 20.015 74.4379 20.81L72.8479 23.831C72.2296 23.3894 71.5317 23.1685 70.7544 23.1685C69.8887 23.1685 69.1644 23.4424 68.5814 23.99C67.9984 24.52 67.7069 25.2532 67.7069 26.1895V33H63.8909V19.9355Z" fill="black"/>
<path d="M87.6711 26.004C87.6711 26.5694 87.6181 27.117 87.5121 27.647H78.3431C78.4491 28.4067 78.8201 29.0074 79.4561 29.449C80.0921 29.873 80.8076 30.085 81.6026 30.085C82.9453 30.085 84.1289 29.6787 85.1536 28.866L86.9291 31.3305C85.5688 32.6379 83.7226 33.2915 81.3906 33.2915C79.2706 33.2915 77.5304 32.7085 76.1701 31.5425C74.8274 30.3589 74.1561 28.6717 74.1561 26.481C74.1561 24.3257 74.8451 22.6474 76.2231 21.446C77.6188 20.227 79.2883 19.6175 81.2316 19.6175C83.1396 19.6175 84.6854 20.1829 85.8691 21.3135C87.0704 22.4265 87.6711 23.99 87.6711 26.004ZM83.0071 23.407C82.5124 22.9654 81.8853 22.7445 81.1256 22.7445C80.3659 22.7445 79.7299 22.9654 79.2176 23.407C78.7053 23.831 78.4138 24.4582 78.3431 25.2885H83.7226C83.7403 24.4582 83.5018 23.831 83.0071 23.407Z" fill="black"/>
<path d="M94.2097 19.6175C96.4004 19.6175 98.0522 20.0327 99.1652 20.863C100.296 21.6757 100.861 22.983 100.861 24.785V33H97.2042C97.2042 32.2934 97.2042 30.615 97.2042 30.615H97.1247C96.7714 31.41 96.1972 32.046 95.4022 32.523C94.6072 33 93.6974 33.2385 92.6727 33.2385C91.3301 33.2385 90.2171 32.8587 89.3337 32.099C88.4504 31.3217 88.0087 30.2882 88.0087 28.9985C88.0087 27.6382 88.4946 26.5782 89.4662 25.8185C90.4556 25.0589 91.7276 24.679 93.2822 24.679C94.6426 24.679 95.7821 24.9087 96.7007 25.368V25.103C96.7007 23.5484 95.6937 22.771 93.6797 22.771C92.4784 22.771 91.1534 23.0184 89.7047 23.513L88.9362 20.6245C90.6322 19.9532 92.3901 19.6175 94.2097 19.6175ZM93.9977 30.032C94.7221 30.032 95.3404 29.8377 95.8527 29.449C96.3651 29.0604 96.6742 28.5215 96.7802 27.8325C95.9676 27.4085 95.0931 27.1965 94.1567 27.1965C93.5384 27.1965 93.0437 27.3202 92.6727 27.5675C92.3194 27.8149 92.1427 28.177 92.1427 28.654C92.1427 29.0957 92.3194 29.4402 92.6727 29.6875C93.0261 29.9172 93.4677 30.032 93.9977 30.032Z" fill="black"/>
<path d="M115.186 33H111.423V25.9775C111.423 24.0695 110.672 23.1155 109.17 23.1155C108.446 23.1155 107.872 23.3982 107.448 23.9635C107.024 24.5289 106.812 25.209 106.812 26.004V33H102.996V19.909H106.6V21.393C107.271 20.2094 108.42 19.6175 110.045 19.6175C111.865 19.6175 113.137 20.4302 113.861 22.0555C114.444 21.1722 115.071 20.545 115.742 20.174C116.414 19.7854 117.235 19.591 118.207 19.591C119.762 19.591 121.016 20.068 121.97 21.022C122.942 21.976 123.427 23.5837 123.427 25.845V33H119.585V25.9245C119.585 24.1049 118.922 23.195 117.597 23.195C116.873 23.195 116.29 23.4689 115.848 24.0165C115.407 24.5465 115.186 25.2002 115.186 25.9775V33Z" fill="black"/>
<path d="M90.6145 11.9956V3.82808H88.2385V11.9956H90.6145Z" fill="#9E9E9E"/>
<path d="M88.486 2.67308C88.211 2.43108 88.0735 2.10108 88.0735 1.68308C88.0735 1.26508 88.211 0.935077 88.486 0.693077C88.772 0.451078 89.0855 0.330078 89.4265 0.330078C89.7675 0.330078 90.0755 0.451078 90.3505 0.693077C90.6365 0.935077 90.7795 1.26508 90.7795 1.68308C90.7795 2.10108 90.6365 2.43108 90.3505 2.67308C90.0755 2.91508 89.7675 3.03608 89.4265 3.03608C89.0855 3.03608 88.772 2.91508 88.486 2.67308Z" fill="#9E9E9E"/>
<path d="M83.556 3.86108H81.1635V11.9956H83.5395V7.75508C83.5395 7.17208 83.721 6.71559 84.084 6.38559C84.447 6.04459 84.898 5.87409 85.437 5.87409C85.921 5.87409 86.3555 6.01158 86.7405 6.28658L87.7305 4.40559C87.1695 3.91059 86.504 3.66309 85.734 3.66309C84.799 3.66309 84.073 4.02609 83.556 4.75209V3.86108Z" fill="#9E9E9E"/>
<path fill-rule="evenodd" clip-rule="evenodd" d="M76.0245 3.66309C77.3885 3.66309 78.417 3.92159 79.11 4.43859C79.814 4.94459 80.166 5.75859 80.166 6.88059V11.9956H77.889C77.889 11.5556 77.889 10.5106 77.889 10.5106H77.8395C77.6195 11.0056 77.262 11.4016 76.767 11.6986C76.272 11.9956 75.7055 12.1441 75.0675 12.1441C74.2315 12.1441 73.5385 11.9076 72.9885 11.4346C72.4385 10.9506 72.1635 10.3071 72.1635 9.50409C72.1635 8.65709 72.466 7.99709 73.071 7.52409C73.687 7.05109 74.479 6.81459 75.447 6.81459C76.294 6.81459 77.0035 6.95759 77.5755 7.24359V7.07859C77.5755 6.11059 76.9485 5.62659 75.6945 5.62659C74.9465 5.62659 74.1215 5.78058 73.2195 6.08858L72.741 4.29009C73.797 3.87209 74.8915 3.66309 76.0245 3.66309ZM75.8925 10.1476C76.3435 10.1476 76.7285 10.0266 77.0475 9.78458C77.3665 9.54259 77.559 9.20709 77.625 8.77809C77.119 8.51409 76.5745 8.38208 75.9915 8.38208C75.6065 8.38208 75.2985 8.45908 75.0675 8.61308C74.8475 8.76709 74.7375 8.99259 74.7375 9.28959C74.7375 9.56458 74.8475 9.77909 75.0675 9.93309C75.2875 10.0761 75.5625 10.1476 75.8925 10.1476Z" fill="#9E9E9E"/>
<path d="M66.5295 0.462158H64.1535V11.9957H66.5295V8.41516L69.351 11.9957H72.2055V11.8142L68.757 7.68916L71.7435 4.00966V3.86116H68.9385L66.5295 7.04566V0.462158Z" fill="#9E9E9E"/>
<path fill-rule="evenodd" clip-rule="evenodd" d="M63.1485 7.63959C63.1485 7.99159 63.1155 8.33259 63.0495 8.66259H57.3405C57.4065 9.13558 57.6375 9.50959 58.0335 9.78458C58.4295 10.0486 58.875 10.1806 59.37 10.1806C60.206 10.1806 60.943 9.92758 61.581 9.42159L62.6865 10.9561C61.8395 11.7701 60.69 12.1771 59.238 12.1771C57.918 12.1771 56.8345 11.8141 55.9875 11.0881C55.1515 10.3511 54.7335 9.30059 54.7335 7.93659C54.7335 6.59459 55.1625 5.54959 56.0205 4.80159C56.8895 4.04259 57.929 3.66309 59.139 3.66309C60.327 3.66309 61.2895 4.01508 62.0265 4.71908C62.7745 5.41208 63.1485 6.38559 63.1485 7.63959ZM60.2445 6.02258C59.9365 5.74758 59.546 5.61009 59.073 5.61009C58.6 5.61009 58.204 5.74758 57.885 6.02258C57.566 6.28658 57.3845 6.67708 57.3405 7.19409H60.69C60.701 6.67708 60.5525 6.28658 60.2445 6.02258Z" fill="#9E9E9E"/>
<path d="M46.257 11.9956H48.6V7.62311C48.6 7.13911 48.7375 6.73211 49.0125 6.40211C49.2875 6.06111 49.6505 5.89061 50.1015 5.89061C50.9265 5.89061 51.339 6.45711 51.339 7.59011V11.9956H53.7315V7.54061C53.7315 6.13261 53.429 5.13161 52.824 4.53761C52.23 3.94361 51.449 3.64661 50.481 3.64661C49.876 3.64661 49.3645 3.76761 48.9465 4.00961C48.5285 4.24061 48.138 4.63111 47.775 5.18111C47.324 4.16911 46.532 3.66311 45.399 3.66311C44.387 3.66311 43.672 4.03161 43.254 4.76861V3.84461H41.01V11.9956H43.386V7.63961C43.386 7.14461 43.518 6.72111 43.782 6.36911C44.046 6.01711 44.4035 5.84111 44.8545 5.84111C45.7895 5.84111 46.257 6.43511 46.257 7.62311V11.9956Z" fill="#9E9E9E"/>
<path d="M20.5336 16.6347L6.93053 22.9891C4.61283 24.0718 3.60552 26.8416 4.68063 29.1756C5.75575 31.5096 8.50617 32.524 10.8239 31.4413L24.4269 25.0869C26.7446 24.0042 27.7519 21.2344 26.6768 18.9004C25.6017 16.5664 22.8513 15.552 20.5336 16.6347Z" fill="#F21C73"/>
<path d="M23.1761 2.55866L9.57854 8.91056C7.26084 9.99324 6.25352 12.763 7.32864 15.097C8.40376 17.431 11.1542 18.4454 13.4719 17.3628L27.0695 11.0109C29.3872 9.92818 30.3945 7.15841 29.3194 4.82439C28.2442 2.49038 25.4938 1.47598 23.1761 2.55866Z" fill="#F21C73"/>
</svg>
