<svg width="24" height="24" viewBox="0 0 24 24" fill="none" xmlns="http://www.w3.org/2000/svg">
<path d="M12 1.25C9.10051 1.25 6.75 3.60051 6.75 6.5V12C6.75 13.1789 7.13925 14.2679 7.79526 15.1441L6.67332 16.266C5.55102 14.9295 4.83595 12.9516 5.24247 10.1061C5.30105 9.69602 5.01612 9.31612 4.60607 9.25754C4.19602 9.19896 3.81612 9.48388 3.75754 9.89393C3.28425 13.207 4.14929 15.6493 5.60939 17.3299L1.46967 21.4697C1.17678 21.7626 1.17678 22.2374 1.46967 22.5303C1.76256 22.8232 2.23744 22.8232 2.53033 22.5303L22.5303 2.53033C22.8232 2.23744 22.8232 1.76256 22.5303 1.46967C22.2374 1.17678 21.7626 1.17678 21.4697 1.46967L17.1959 5.74345C16.8292 3.20242 14.6426 1.25 12 1.25Z" fill="#DA473F"/>
<path d="M20.2425 9.89393C20.1839 9.48388 19.804 9.19896 19.3939 9.25754C18.9839 9.31612 18.699 9.69602 18.7575 10.1061C19.2249 13.3775 18.202 15.5029 16.7796 16.8258C15.321 18.1823 13.3813 18.75 11.9839 18.75C11.2319 18.75 10.3083 18.5845 9.38286 18.2065C8.99941 18.0498 8.56158 18.2337 8.40493 18.6171C8.24829 19.0006 8.43215 19.4384 8.8156 19.5951C9.63602 19.9302 10.4671 20.1304 11.2339 20.2101V22C11.2339 22.4142 11.5697 22.75 11.9839 22.75C12.3981 22.75 12.7339 22.4142 12.7339 22V20.21C14.347 20.0426 16.2785 19.3402 17.8011 17.9242C19.6044 16.2471 20.7751 13.6225 20.2425 9.89393Z" fill="#DA473F"/>
<path fill-rule="evenodd" clip-rule="evenodd" d="M17.25 11.5C17.25 11.1967 17.0673 10.9232 16.787 10.8071C16.5068 10.691 16.1842 10.7552 15.9697 10.9697L10.9945 15.9449C10.79 16.1493 10.7213 16.4531 10.8178 16.7256C10.9144 16.9982 11.159 17.1909 11.4465 17.2211C11.6286 17.2402 11.8133 17.25 12 17.25C14.8995 17.25 17.25 14.8995 17.25 12V11.5Z" fill="#DA473F"/>
</svg>
