<svg width="24" height="24" viewBox="0 0 24 24" fill="none" xmlns="http://www.w3.org/2000/svg">
<path fill-rule="evenodd" clip-rule="evenodd" d="M6.75 6.5C6.75 3.60051 9.1005 1.25 12 1.25C14.8995 1.25 17.25 3.60051 17.25 6.5V12C17.25 14.8995 14.8995 17.25 12 17.25C9.1005 17.25 6.75 14.8995 6.75 12V6.5ZM4.60607 9.25754C5.01612 9.31612 5.30105 9.69602 5.24247 10.1061C4.77487 13.3793 5.79115 15.5049 7.20572 16.8271C8.65597 18.1826 10.587 18.75 11.9839 18.75C13.3813 18.75 15.321 18.1823 16.7796 16.8258C18.202 15.5029 19.2249 13.3775 18.7575 10.1061C18.699 9.69602 18.9839 9.31612 19.3939 9.25754C19.804 9.19896 20.1839 9.48388 20.2425 9.89393C20.7751 13.6225 19.6044 16.2471 17.8011 17.9242C16.2785 19.3402 14.347 20.0426 12.7339 20.21V22C12.7339 22.4142 12.3981 22.75 11.9839 22.75C11.5697 22.75 11.2339 22.4142 11.2339 22V20.21C9.62232 20.0425 7.69724 19.3397 6.18147 17.9229C4.38633 16.2451 3.22514 13.6207 3.75754 9.89393C3.81612 9.48388 4.19602 9.19896 4.60607 9.25754Z" fill="#68BE79"/>
</svg>
